<?xml version="1.0" encoding="UTF-8" standalone="no"?><svg xmlns="http://www.w3.org/2000/svg" xmlns:xlink="http://www.w3.org/1999/xlink" contentScriptType="application/ecmascript" contentStyleType="text/css" height="868px" preserveAspectRatio="none" style="width:915px;height:868px;background:#FFFFFF;" version="1.1" viewBox="0 0 915 868" width="915px" zoomAndPan="magnify"><defs/><g><!--MD5=[2ba6696f5a44eab3ad8180a17d57ae67]
cluster Pocket--><rect fill="#FFFFE0" height="855" style="stroke:#000000;stroke-width:1.5;" width="902" x="7" y="7"/><path d="M65,7 L65,17.6094 L55,27.6094 L7,27.6094 " fill="none" style="stroke:#000000;stroke-width:1.5;"/><text fill="#000000" font-family="sans-serif" font-size="14" font-weight="bold" lengthAdjust="spacing" textLength="48" x="10" y="22.5332">Pocket</text><!--MD5=[86bd40824988b81264884bed2dcb5ea2]
cluster comRace--><polygon fill="#F5F5F5" points="487,51,557,51,564,74.6094,885,74.6094,885,266,487,266,487,51" style="stroke:#CD5C5C;stroke-width:1.5;"/><line style="stroke:#CD5C5C;stroke-width:1.5;" x1="487" x2="564" y1="74.6094" y2="74.6094"/><text fill="#000000" font-family="sans-serif" font-size="14" font-weight="bold" lengthAdjust="spacing" textLength="64" x="491" y="67.5332">comRace</text><!--MD5=[8cd268ad5ea173331044f1a87fb971df]
cluster comRemote--><polygon fill="#F5F5F5" points="31,183,120,183,127,206.6094,459,206.6094,459,398,31,398,31,183" style="stroke:#CD5C5C;stroke-width:1.5;"/><line style="stroke:#CD5C5C;stroke-width:1.5;" x1="31" x2="127" y1="206.6094" y2="206.6094"/><text fill="#000000" font-family="sans-serif" font-size="14" font-weight="bold" lengthAdjust="spacing" textLength="83" x="35" y="199.5332">comRemote</text><!--MD5=[827e273bb2ad87752c0c307eb88df177]
cluster pilot--><polygon fill="#F5F5F5" points="308.5,51,345.5,51,352.5,74.6094,414.5,74.6094,414.5,159,308.5,159,308.5,51" style="stroke:#CD5C5C;stroke-width:1.5;"/><line style="stroke:#CD5C5C;stroke-width:1.5;" x1="308.5" x2="352.5" y1="74.6094" y2="74.6094"/><text fill="#000000" font-family="sans-serif" font-size="14" font-weight="bold" lengthAdjust="spacing" textLength="31" x="312.5" y="67.5332">pilot</text><!--MD5=[c05f8da93807c47935fc90de889099f0]
cluster localizer--><polygon fill="#F5F5F5" points="41,422,106,422,113,445.6094,226,445.6094,226,838,41,838,41,422" style="stroke:#CD5C5C;stroke-width:1.5;"/><line style="stroke:#CD5C5C;stroke-width:1.5;" x1="41" x2="113" y1="445.6094" y2="445.6094"/><text fill="#000000" font-family="sans-serif" font-size="14" font-weight="bold" lengthAdjust="spacing" textLength="59" x="45" y="438.5332">localizer</text><!--MD5=[414760ed2f2462cf0231f6b1ee3ff11c]
cluster mapping--><polygon fill="#F5F5F5" points="81,466,147,466,154,489.6094,186,489.6094,186,566,81,566,81,466" style="stroke:#CD5C5C;stroke-width:1.5;"/><line style="stroke:#CD5C5C;stroke-width:1.5;" x1="81" x2="154" y1="489.6094" y2="489.6094"/><text fill="#000000" font-family="sans-serif" font-size="14" font-weight="bold" lengthAdjust="spacing" textLength="60" x="85" y="482.5332">mapping</text><!--MD5=[dd480f35eba4fb00a010a80836279b69]
cluster positionning--><polygon fill="#F5F5F5" points="67,590,161,590,168,613.6094,200,613.6094,200,690,67,690,67,590" style="stroke:#CD5C5C;stroke-width:1.5;"/><line style="stroke:#CD5C5C;stroke-width:1.5;" x1="67" x2="168" y1="613.6094" y2="613.6094"/><text fill="#000000" font-family="sans-serif" font-size="14" font-weight="bold" lengthAdjust="spacing" textLength="88" x="71" y="606.5332">positionning</text><!--MD5=[e69f108de8c823ab7c9b823882957e71]
cluster cartographer--><polygon fill="#F5F5F5" points="65,714,163,714,170,737.6094,202,737.6094,202,814,65,814,65,714" style="stroke:#CD5C5C;stroke-width:1.5;"/><line style="stroke:#CD5C5C;stroke-width:1.5;" x1="65" x2="170" y1="737.6094" y2="737.6094"/><text fill="#000000" font-family="sans-serif" font-size="14" font-weight="bold" lengthAdjust="spacing" textLength="92" x="69" y="730.5332">cartographer</text><!--MD5=[b96ef8f53f9187ffe5d5cc0a40010f97]
class DispatcherRacePocket--><rect codeLine="13" fill="#FEFECE" height="71.2813" id="DispatcherRacePocket" style="stroke:#A80036;stroke-width:1.5;" width="158" x="503" y="87.5"/><ellipse cx="518" cy="115.1406" fill="#ADD1B2" rx="11" ry="11" style="stroke:#A80036;stroke-width:1.0;"/><path d="M520.7656,111.0156 Q520.9219,110.7969 521.1094,110.6875 Q521.2969,110.5781 521.5156,110.5781 Q521.8906,110.5781 522.125,110.8438 Q522.3594,111.0938 522.3594,111.7031 L522.3594,113.1563 Q522.3594,113.7656 522.125,114.0313 Q521.8906,114.2969 521.5156,114.2969 Q521.1719,114.2969 520.9688,114.0938 Q520.7656,113.9063 520.6563,113.3906 Q520.6094,113.0313 520.4219,112.8438 Q520.0938,112.4688 519.4844,112.25 Q518.875,112.0313 518.25,112.0313 Q517.4844,112.0313 516.8438,112.3594 Q516.2188,112.6875 515.7188,113.4375 Q515.2344,114.1875 515.2344,115.2188 L515.2344,116.3125 Q515.2344,117.5469 516.125,118.375 Q517.0156,119.1875 518.6094,119.1875 Q519.5469,119.1875 520.2031,118.9375 Q520.5938,118.7813 521.0156,118.3438 Q521.2813,118.0781 521.4219,118 Q521.5781,117.9219 521.7813,117.9219 Q522.1094,117.9219 522.3594,118.1875 Q522.625,118.4375 522.625,118.7813 Q522.625,119.125 522.2813,119.5313 Q521.7813,120.1094 520.9844,120.4375 Q519.9063,120.8906 518.6094,120.8906 Q517.0938,120.8906 515.8906,120.2656 Q514.9063,119.7656 514.2188,118.7031 Q513.5313,117.625 513.5313,116.3438 L513.5313,115.1875 Q513.5313,113.8594 514.1406,112.7188 Q514.7656,111.5625 515.8594,110.9531 Q516.9531,110.3281 518.1875,110.3281 Q518.9219,110.3281 519.5625,110.5 Q520.2188,110.6563 520.7656,111.0156 Z " fill="#000000"/><text fill="#000000" font-family="sans-serif" font-size="12" font-style="italic" lengthAdjust="spacing" textLength="46" x="572" y="104.957">«active»</text><text fill="#000000" font-family="sans-serif" font-size="12" font-style="italic" lengthAdjust="spacing" textLength="60" x="565" y="120.0508">«medium»</text><text fill="#000000" font-family="sans-serif" font-size="12" lengthAdjust="spacing" textLength="126" x="532" y="135.1445">DispatcherRacePocket</text><line style="stroke:#A80036;stroke-width:1.5;" x1="504" x2="660" y1="142.7813" y2="142.7813"/><line style="stroke:#A80036;stroke-width:1.5;" x1="504" x2="660" y1="150.7813" y2="150.7813"/><!--MD5=[c47ee3e76483ea0534d2f9f8d6baa468]
class PostmanRacePocket--><rect codeLine="14" fill="#FEFECE" height="56.1875" id="PostmanRacePocket" style="stroke:#A80036;stroke-width:1.5;" width="148" x="721" y="190"/><ellipse cx="736" cy="210.0938" fill="#ADD1B2" rx="11" ry="11" style="stroke:#A80036;stroke-width:1.0;"/><path d="M738.7656,205.9688 Q738.9219,205.75 739.1094,205.6406 Q739.2969,205.5313 739.5156,205.5313 Q739.8906,205.5313 740.125,205.7969 Q740.3594,206.0469 740.3594,206.6563 L740.3594,208.1094 Q740.3594,208.7188 740.125,208.9844 Q739.8906,209.25 739.5156,209.25 Q739.1719,209.25 738.9688,209.0469 Q738.7656,208.8594 738.6563,208.3438 Q738.6094,207.9844 738.4219,207.7969 Q738.0938,207.4219 737.4844,207.2031 Q736.875,206.9844 736.25,206.9844 Q735.4844,206.9844 734.8438,207.3125 Q734.2188,207.6406 733.7188,208.3906 Q733.2344,209.1406 733.2344,210.1719 L733.2344,211.2656 Q733.2344,212.5 734.125,213.3281 Q735.0156,214.1406 736.6094,214.1406 Q737.5469,214.1406 738.2031,213.8906 Q738.5938,213.7344 739.0156,213.2969 Q739.2813,213.0313 739.4219,212.9531 Q739.5781,212.875 739.7813,212.875 Q740.1094,212.875 740.3594,213.1406 Q740.625,213.3906 740.625,213.7344 Q740.625,214.0781 740.2813,214.4844 Q739.7813,215.0625 738.9844,215.3906 Q737.9063,215.8438 736.6094,215.8438 Q735.0938,215.8438 733.8906,215.2188 Q732.9063,214.7188 732.2188,213.6563 Q731.5313,212.5781 731.5313,211.2969 L731.5313,210.1406 Q731.5313,208.8125 732.1406,207.6719 Q732.7656,206.5156 733.8594,205.9063 Q734.9531,205.2813 736.1875,205.2813 Q736.9219,205.2813 737.5625,205.4531 Q738.2188,205.6094 738.7656,205.9688 Z " fill="#000000"/><text fill="#000000" font-family="sans-serif" font-size="12" font-style="italic" lengthAdjust="spacing" textLength="60" x="778" y="207.457">«medium»</text><text fill="#000000" font-family="sans-serif" font-size="12" lengthAdjust="spacing" textLength="116" x="750" y="222.5508">PostmanRacePocket</text><line style="stroke:#A80036;stroke-width:1.5;" x1="722" x2="868" y1="230.1875" y2="230.1875"/><line style="stroke:#A80036;stroke-width:1.5;" x1="722" x2="868" y1="238.1875" y2="238.1875"/><!--MD5=[97edbbb3c8b0b712fb061459765f1635]
class ProxyRace--><rect codeLine="15" fill="#FEFECE" height="56.1875" id="ProxyRace" style="stroke:#A80036;stroke-width:1.5;" width="90" x="537" y="194"/><ellipse cx="552" cy="214.0938" fill="#ADD1B2" rx="11" ry="11" style="stroke:#A80036;stroke-width:1.0;"/><path d="M554.7656,209.9688 Q554.9219,209.75 555.1094,209.6406 Q555.2969,209.5313 555.5156,209.5313 Q555.8906,209.5313 556.125,209.7969 Q556.3594,210.0469 556.3594,210.6563 L556.3594,212.1094 Q556.3594,212.7188 556.125,212.9844 Q555.8906,213.25 555.5156,213.25 Q555.1719,213.25 554.9688,213.0469 Q554.7656,212.8594 554.6563,212.3438 Q554.6094,211.9844 554.4219,211.7969 Q554.0938,211.4219 553.4844,211.2031 Q552.875,210.9844 552.25,210.9844 Q551.4844,210.9844 550.8438,211.3125 Q550.2188,211.6406 549.7188,212.3906 Q549.2344,213.1406 549.2344,214.1719 L549.2344,215.2656 Q549.2344,216.5 550.125,217.3281 Q551.0156,218.1406 552.6094,218.1406 Q553.5469,218.1406 554.2031,217.8906 Q554.5938,217.7344 555.0156,217.2969 Q555.2813,217.0313 555.4219,216.9531 Q555.5781,216.875 555.7813,216.875 Q556.1094,216.875 556.3594,217.1406 Q556.625,217.3906 556.625,217.7344 Q556.625,218.0781 556.2813,218.4844 Q555.7813,219.0625 554.9844,219.3906 Q553.9063,219.8438 552.6094,219.8438 Q551.0938,219.8438 549.8906,219.2188 Q548.9063,218.7188 548.2188,217.6563 Q547.5313,216.5781 547.5313,215.2969 L547.5313,214.1406 Q547.5313,212.8125 548.1406,211.6719 Q548.7656,210.5156 549.8594,209.9063 Q550.9531,209.2813 552.1875,209.2813 Q552.9219,209.2813 553.5625,209.4531 Q554.2188,209.6094 554.7656,209.9688 Z " fill="#000000"/><text fill="#000000" font-family="sans-serif" font-size="12" font-style="italic" lengthAdjust="spacing" textLength="60" x="565" y="211.457">«medium»</text><text fill="#000000" font-family="sans-serif" font-size="12" lengthAdjust="spacing" textLength="58" x="566" y="226.5508">ProxyRace</text><line style="stroke:#A80036;stroke-width:1.5;" x1="538" x2="626" y1="234.1875" y2="234.1875"/><line style="stroke:#A80036;stroke-width:1.5;" x1="538" x2="626" y1="242.1875" y2="242.1875"/><!--MD5=[c00295f6998e49d95177c6d9e2f6f52e]
class ProtocolRacePocket--><rect codeLine="16" fill="#FEFECE" height="56.1875" id="ProtocolRacePocket" style="stroke:#A80036;stroke-width:1.5;" width="143" x="723.5" y="97"/><ellipse cx="738.5" cy="117.0938" fill="#ADD1B2" rx="11" ry="11" style="stroke:#A80036;stroke-width:1.0;"/><path d="M741.2656,112.9688 Q741.4219,112.75 741.6094,112.6406 Q741.7969,112.5313 742.0156,112.5313 Q742.3906,112.5313 742.625,112.7969 Q742.8594,113.0469 742.8594,113.6563 L742.8594,115.1094 Q742.8594,115.7188 742.625,115.9844 Q742.3906,116.25 742.0156,116.25 Q741.6719,116.25 741.4688,116.0469 Q741.2656,115.8594 741.1563,115.3438 Q741.1094,114.9844 740.9219,114.7969 Q740.5938,114.4219 739.9844,114.2031 Q739.375,113.9844 738.75,113.9844 Q737.9844,113.9844 737.3438,114.3125 Q736.7188,114.6406 736.2188,115.3906 Q735.7344,116.1406 735.7344,117.1719 L735.7344,118.2656 Q735.7344,119.5 736.625,120.3281 Q737.5156,121.1406 739.1094,121.1406 Q740.0469,121.1406 740.7031,120.8906 Q741.0938,120.7344 741.5156,120.2969 Q741.7813,120.0313 741.9219,119.9531 Q742.0781,119.875 742.2813,119.875 Q742.6094,119.875 742.8594,120.1406 Q743.125,120.3906 743.125,120.7344 Q743.125,121.0781 742.7813,121.4844 Q742.2813,122.0625 741.4844,122.3906 Q740.4063,122.8438 739.1094,122.8438 Q737.5938,122.8438 736.3906,122.2188 Q735.4063,121.7188 734.7188,120.6563 Q734.0313,119.5781 734.0313,118.2969 L734.0313,117.1406 Q734.0313,115.8125 734.6406,114.6719 Q735.2656,113.5156 736.3594,112.9063 Q737.4531,112.2813 738.6875,112.2813 Q739.4219,112.2813 740.0625,112.4531 Q740.7188,112.6094 741.2656,112.9688 Z " fill="#000000"/><text fill="#000000" font-family="sans-serif" font-size="12" font-style="italic" lengthAdjust="spacing" textLength="60" x="778" y="114.457">«medium»</text><text fill="#000000" font-family="sans-serif" font-size="12" lengthAdjust="spacing" textLength="111" x="752.5" y="129.5508">ProtocolRacePocket</text><line style="stroke:#A80036;stroke-width:1.5;" x1="724.5" x2="865.5" y1="137.1875" y2="137.1875"/><line style="stroke:#A80036;stroke-width:1.5;" x1="724.5" x2="865.5" y1="145.1875" y2="145.1875"/><!--MD5=[52d8200c618e7d6f757f43b8e29f83dc]
class DispatcherRemotePocket--><rect codeLine="21" fill="#FEFECE" height="71.2813" id="DispatcherRemotePocket" style="stroke:#A80036;stroke-width:1.5;" width="173" x="47" y="219.5"/><ellipse cx="62" cy="247.1406" fill="#ADD1B2" rx="11" ry="11" style="stroke:#A80036;stroke-width:1.0;"/><path d="M64.7656,243.0156 Q64.9219,242.7969 65.1094,242.6875 Q65.2969,242.5781 65.5156,242.5781 Q65.8906,242.5781 66.125,242.8438 Q66.3594,243.0938 66.3594,243.7031 L66.3594,245.1563 Q66.3594,245.7656 66.125,246.0313 Q65.8906,246.2969 65.5156,246.2969 Q65.1719,246.2969 64.9688,246.0938 Q64.7656,245.9063 64.6563,245.3906 Q64.6094,245.0313 64.4219,244.8438 Q64.0938,244.4688 63.4844,244.25 Q62.875,244.0313 62.25,244.0313 Q61.4844,244.0313 60.8438,244.3594 Q60.2188,244.6875 59.7188,245.4375 Q59.2344,246.1875 59.2344,247.2188 L59.2344,248.3125 Q59.2344,249.5469 60.125,250.375 Q61.0156,251.1875 62.6094,251.1875 Q63.5469,251.1875 64.2031,250.9375 Q64.5938,250.7813 65.0156,250.3438 Q65.2813,250.0781 65.4219,250 Q65.5781,249.9219 65.7813,249.9219 Q66.1094,249.9219 66.3594,250.1875 Q66.625,250.4375 66.625,250.7813 Q66.625,251.125 66.2813,251.5313 Q65.7813,252.1094 64.9844,252.4375 Q63.9063,252.8906 62.6094,252.8906 Q61.0938,252.8906 59.8906,252.2656 Q58.9063,251.7656 58.2188,250.7031 Q57.5313,249.625 57.5313,248.3438 L57.5313,247.1875 Q57.5313,245.8594 58.1406,244.7188 Q58.7656,243.5625 59.8594,242.9531 Q60.9531,242.3281 62.1875,242.3281 Q62.9219,242.3281 63.5625,242.5 Q64.2188,242.6563 64.7656,243.0156 Z " fill="#000000"/><text fill="#000000" font-family="sans-serif" font-size="12" font-style="italic" lengthAdjust="spacing" textLength="46" x="123.5" y="236.957">«active»</text><text fill="#000000" font-family="sans-serif" font-size="12" font-style="italic" lengthAdjust="spacing" textLength="60" x="116.5" y="252.0508">«medium»</text><text fill="#000000" font-family="sans-serif" font-size="12" lengthAdjust="spacing" textLength="141" x="76" y="267.1445">DispatcherRemotePocket</text><line style="stroke:#A80036;stroke-width:1.5;" x1="48" x2="219" y1="274.7813" y2="274.7813"/><line style="stroke:#A80036;stroke-width:1.5;" x1="48" x2="219" y1="282.7813" y2="282.7813"/><!--MD5=[31d3fae8d44ce78761763a548f38166c]
class PostmanRemotePocket--><rect codeLine="22" fill="#FEFECE" height="56.1875" id="PostmanRemotePocket" style="stroke:#A80036;stroke-width:1.5;" width="163" x="280" y="322"/><ellipse cx="295" cy="342.0938" fill="#ADD1B2" rx="11" ry="11" style="stroke:#A80036;stroke-width:1.0;"/><path d="M297.7656,337.9688 Q297.9219,337.75 298.1094,337.6406 Q298.2969,337.5313 298.5156,337.5313 Q298.8906,337.5313 299.125,337.7969 Q299.3594,338.0469 299.3594,338.6563 L299.3594,340.1094 Q299.3594,340.7188 299.125,340.9844 Q298.8906,341.25 298.5156,341.25 Q298.1719,341.25 297.9688,341.0469 Q297.7656,340.8594 297.6563,340.3438 Q297.6094,339.9844 297.4219,339.7969 Q297.0938,339.4219 296.4844,339.2031 Q295.875,338.9844 295.25,338.9844 Q294.4844,338.9844 293.8438,339.3125 Q293.2188,339.6406 292.7188,340.3906 Q292.2344,341.1406 292.2344,342.1719 L292.2344,343.2656 Q292.2344,344.5 293.125,345.3281 Q294.0156,346.1406 295.6094,346.1406 Q296.5469,346.1406 297.2031,345.8906 Q297.5938,345.7344 298.0156,345.2969 Q298.2813,345.0313 298.4219,344.9531 Q298.5781,344.875 298.7813,344.875 Q299.1094,344.875 299.3594,345.1406 Q299.625,345.3906 299.625,345.7344 Q299.625,346.0781 299.2813,346.4844 Q298.7813,347.0625 297.9844,347.3906 Q296.9063,347.8438 295.6094,347.8438 Q294.0938,347.8438 292.8906,347.2188 Q291.9063,346.7188 291.2188,345.6563 Q290.5313,344.5781 290.5313,343.2969 L290.5313,342.1406 Q290.5313,340.8125 291.1406,339.6719 Q291.7656,338.5156 292.8594,337.9063 Q293.9531,337.2813 295.1875,337.2813 Q295.9219,337.2813 296.5625,337.4531 Q297.2188,337.6094 297.7656,337.9688 Z " fill="#000000"/><text fill="#000000" font-family="sans-serif" font-size="12" font-style="italic" lengthAdjust="spacing" textLength="60" x="344.5" y="339.457">«medium»</text><text fill="#000000" font-family="sans-serif" font-size="12" lengthAdjust="spacing" textLength="131" x="309" y="354.5508">PostmanRemotePocket</text><line style="stroke:#A80036;stroke-width:1.5;" x1="281" x2="442" y1="362.1875" y2="362.1875"/><line style="stroke:#A80036;stroke-width:1.5;" x1="281" x2="442" y1="370.1875" y2="370.1875"/><!--MD5=[371c7b87904486c012db0f7a8bfa960f]
class ProxyRemote--><rect codeLine="23" fill="#FEFECE" height="56.1875" id="ProxyRemote" style="stroke:#A80036;stroke-width:1.5;" width="105" x="81" y="326"/><ellipse cx="96" cy="346.0938" fill="#ADD1B2" rx="11" ry="11" style="stroke:#A80036;stroke-width:1.0;"/><path d="M98.7656,341.9688 Q98.9219,341.75 99.1094,341.6406 Q99.2969,341.5313 99.5156,341.5313 Q99.8906,341.5313 100.125,341.7969 Q100.3594,342.0469 100.3594,342.6563 L100.3594,344.1094 Q100.3594,344.7188 100.125,344.9844 Q99.8906,345.25 99.5156,345.25 Q99.1719,345.25 98.9688,345.0469 Q98.7656,344.8594 98.6563,344.3438 Q98.6094,343.9844 98.4219,343.7969 Q98.0938,343.4219 97.4844,343.2031 Q96.875,342.9844 96.25,342.9844 Q95.4844,342.9844 94.8438,343.3125 Q94.2188,343.6406 93.7188,344.3906 Q93.2344,345.1406 93.2344,346.1719 L93.2344,347.2656 Q93.2344,348.5 94.125,349.3281 Q95.0156,350.1406 96.6094,350.1406 Q97.5469,350.1406 98.2031,349.8906 Q98.5938,349.7344 99.0156,349.2969 Q99.2813,349.0313 99.4219,348.9531 Q99.5781,348.875 99.7813,348.875 Q100.1094,348.875 100.3594,349.1406 Q100.625,349.3906 100.625,349.7344 Q100.625,350.0781 100.2813,350.4844 Q99.7813,351.0625 98.9844,351.3906 Q97.9063,351.8438 96.6094,351.8438 Q95.0938,351.8438 93.8906,351.2188 Q92.9063,350.7188 92.2188,349.6563 Q91.5313,348.5781 91.5313,347.2969 L91.5313,346.1406 Q91.5313,344.8125 92.1406,343.6719 Q92.7656,342.5156 93.8594,341.9063 Q94.9531,341.2813 96.1875,341.2813 Q96.9219,341.2813 97.5625,341.4531 Q98.2188,341.6094 98.7656,341.9688 Z " fill="#000000"/><text fill="#000000" font-family="sans-serif" font-size="12" font-style="italic" lengthAdjust="spacing" textLength="60" x="116.5" y="343.457">«medium»</text><text fill="#000000" font-family="sans-serif" font-size="12" lengthAdjust="spacing" textLength="73" x="110" y="358.5508">ProxyRemote</text><line style="stroke:#A80036;stroke-width:1.5;" x1="82" x2="185" y1="366.1875" y2="366.1875"/><line style="stroke:#A80036;stroke-width:1.5;" x1="82" x2="185" y1="374.1875" y2="374.1875"/><!--MD5=[78759aa70c7df186161947b5aea549ed]
class ProtocolRemotePocket--><rect codeLine="24" fill="#FEFECE" height="56.1875" id="ProtocolRemotePocket" style="stroke:#A80036;stroke-width:1.5;" width="158" x="282.5" y="229"/><ellipse cx="297.5" cy="249.0938" fill="#ADD1B2" rx="11" ry="11" style="stroke:#A80036;stroke-width:1.0;"/><path d="M300.2656,244.9688 Q300.4219,244.75 300.6094,244.6406 Q300.7969,244.5313 301.0156,244.5313 Q301.3906,244.5313 301.625,244.7969 Q301.8594,245.0469 301.8594,245.6563 L301.8594,247.1094 Q301.8594,247.7188 301.625,247.9844 Q301.3906,248.25 301.0156,248.25 Q300.6719,248.25 300.4688,248.0469 Q300.2656,247.8594 300.1563,247.3438 Q300.1094,246.9844 299.9219,246.7969 Q299.5938,246.4219 298.9844,246.2031 Q298.375,245.9844 297.75,245.9844 Q296.9844,245.9844 296.3438,246.3125 Q295.7188,246.6406 295.2188,247.3906 Q294.7344,248.1406 294.7344,249.1719 L294.7344,250.2656 Q294.7344,251.5 295.625,252.3281 Q296.5156,253.1406 298.1094,253.1406 Q299.0469,253.1406 299.7031,252.8906 Q300.0938,252.7344 300.5156,252.2969 Q300.7813,252.0313 300.9219,251.9531 Q301.0781,251.875 301.2813,251.875 Q301.6094,251.875 301.8594,252.1406 Q302.125,252.3906 302.125,252.7344 Q302.125,253.0781 301.7813,253.4844 Q301.2813,254.0625 300.4844,254.3906 Q299.4063,254.8438 298.1094,254.8438 Q296.5938,254.8438 295.3906,254.2188 Q294.4063,253.7188 293.7188,252.6563 Q293.0313,251.5781 293.0313,250.2969 L293.0313,249.1406 Q293.0313,247.8125 293.6406,246.6719 Q294.2656,245.5156 295.3594,244.9063 Q296.4531,244.2813 297.6875,244.2813 Q298.4219,244.2813 299.0625,244.4531 Q299.7188,244.6094 300.2656,244.9688 Z " fill="#000000"/><text fill="#000000" font-family="sans-serif" font-size="12" font-style="italic" lengthAdjust="spacing" textLength="60" x="344.5" y="246.457">«medium»</text><text fill="#000000" font-family="sans-serif" font-size="12" lengthAdjust="spacing" textLength="126" x="311.5" y="261.5508">ProtocolRemotePocket</text><line style="stroke:#A80036;stroke-width:1.5;" x1="283.5" x2="439.5" y1="269.1875" y2="269.1875"/><line style="stroke:#A80036;stroke-width:1.5;" x1="283.5" x2="439.5" y1="277.1875" y2="277.1875"/><!--MD5=[be584b6e89b0d359e193eb60bf13082c]
class Pilot--><rect codeLine="29" fill="#FEFECE" height="56.1875" id="Pilot" style="stroke:#A80036;stroke-width:1.5;" width="74" x="324.5" y="87"/><ellipse cx="339.5" cy="107.0938" fill="#ADD1B2" rx="11" ry="11" style="stroke:#A80036;stroke-width:1.0;"/><path d="M342.2656,102.9688 Q342.4219,102.75 342.6094,102.6406 Q342.7969,102.5313 343.0156,102.5313 Q343.3906,102.5313 343.625,102.7969 Q343.8594,103.0469 343.8594,103.6563 L343.8594,105.1094 Q343.8594,105.7188 343.625,105.9844 Q343.3906,106.25 343.0156,106.25 Q342.6719,106.25 342.4688,106.0469 Q342.2656,105.8594 342.1563,105.3438 Q342.1094,104.9844 341.9219,104.7969 Q341.5938,104.4219 340.9844,104.2031 Q340.375,103.9844 339.75,103.9844 Q338.9844,103.9844 338.3438,104.3125 Q337.7188,104.6406 337.2188,105.3906 Q336.7344,106.1406 336.7344,107.1719 L336.7344,108.2656 Q336.7344,109.5 337.625,110.3281 Q338.5156,111.1406 340.1094,111.1406 Q341.0469,111.1406 341.7031,110.8906 Q342.0938,110.7344 342.5156,110.2969 Q342.7813,110.0313 342.9219,109.9531 Q343.0781,109.875 343.2813,109.875 Q343.6094,109.875 343.8594,110.1406 Q344.125,110.3906 344.125,110.7344 Q344.125,111.0781 343.7813,111.4844 Q343.2813,112.0625 342.4844,112.3906 Q341.4063,112.8438 340.1094,112.8438 Q338.5938,112.8438 337.3906,112.2188 Q336.4063,111.7188 335.7188,110.6563 Q335.0313,109.5781 335.0313,108.2969 L335.0313,107.1406 Q335.0313,105.8125 335.6406,104.6719 Q336.2656,103.5156 337.3594,102.9063 Q338.4531,102.2813 339.6875,102.2813 Q340.4219,102.2813 341.0625,102.4531 Q341.7188,102.6094 342.2656,102.9688 Z " fill="#000000"/><text fill="#000000" font-family="sans-serif" font-size="12" font-style="italic" lengthAdjust="spacing" textLength="46" x="351.5" y="104.457">«active»</text><text fill="#000000" font-family="sans-serif" font-size="12" lengthAdjust="spacing" textLength="24" x="362.5" y="119.5508">Pilot</text><line style="stroke:#A80036;stroke-width:1.5;" x1="325.5" x2="397.5" y1="127.1875" y2="127.1875"/><line style="stroke:#A80036;stroke-width:1.5;" x1="325.5" x2="397.5" y1="135.1875" y2="135.1875"/><!--MD5=[085457430d2356209d15d1291460c965]
class Mapper--><rect codeLine="35" fill="#FEFECE" height="48" id="Mapper" style="stroke:#A80036;stroke-width:1.5;" width="73" x="97" y="502"/><ellipse cx="112" cy="518" fill="#ADD1B2" rx="11" ry="11" style="stroke:#A80036;stroke-width:1.0;"/><path d="M114.7656,513.875 Q114.9219,513.6563 115.1094,513.5469 Q115.2969,513.4375 115.5156,513.4375 Q115.8906,513.4375 116.125,513.7031 Q116.3594,513.9531 116.3594,514.5625 L116.3594,516.0156 Q116.3594,516.625 116.125,516.8906 Q115.8906,517.1563 115.5156,517.1563 Q115.1719,517.1563 114.9688,516.9531 Q114.7656,516.7656 114.6563,516.25 Q114.6094,515.8906 114.4219,515.7031 Q114.0938,515.3281 113.4844,515.1094 Q112.875,514.8906 112.25,514.8906 Q111.4844,514.8906 110.8438,515.2188 Q110.2188,515.5469 109.7188,516.2969 Q109.2344,517.0469 109.2344,518.0781 L109.2344,519.1719 Q109.2344,520.4063 110.125,521.2344 Q111.0156,522.0469 112.6094,522.0469 Q113.5469,522.0469 114.2031,521.7969 Q114.5938,521.6406 115.0156,521.2031 Q115.2813,520.9375 115.4219,520.8594 Q115.5781,520.7813 115.7813,520.7813 Q116.1094,520.7813 116.3594,521.0469 Q116.625,521.2969 116.625,521.6406 Q116.625,521.9844 116.2813,522.3906 Q115.7813,522.9688 114.9844,523.2969 Q113.9063,523.75 112.6094,523.75 Q111.0938,523.75 109.8906,523.125 Q108.9063,522.625 108.2188,521.5625 Q107.5313,520.4844 107.5313,519.2031 L107.5313,518.0469 Q107.5313,516.7188 108.1406,515.5781 Q108.7656,514.4219 109.8594,513.8125 Q110.9531,513.1875 112.1875,513.1875 Q112.9219,513.1875 113.5625,513.3594 Q114.2188,513.5156 114.7656,513.875 Z " fill="#000000"/><text fill="#000000" font-family="sans-serif" font-size="12" lengthAdjust="spacing" textLength="41" x="126" y="522.9102">Mapper</text><line style="stroke:#A80036;stroke-width:1.5;" x1="98" x2="169" y1="534" y2="534"/><line style="stroke:#A80036;stroke-width:1.5;" x1="98" x2="169" y1="542" y2="542"/><!--MD5=[725326fce77a9de9f68c765e112a60c6]
class Positionning--><rect codeLine="40" fill="#FEFECE" height="48" id="Positionning" style="stroke:#A80036;stroke-width:1.5;" width="101" x="83" y="626"/><ellipse cx="98" cy="642" fill="#ADD1B2" rx="11" ry="11" style="stroke:#A80036;stroke-width:1.0;"/><path d="M100.7656,637.875 Q100.9219,637.6563 101.1094,637.5469 Q101.2969,637.4375 101.5156,637.4375 Q101.8906,637.4375 102.125,637.7031 Q102.3594,637.9531 102.3594,638.5625 L102.3594,640.0156 Q102.3594,640.625 102.125,640.8906 Q101.8906,641.1563 101.5156,641.1563 Q101.1719,641.1563 100.9688,640.9531 Q100.7656,640.7656 100.6563,640.25 Q100.6094,639.8906 100.4219,639.7031 Q100.0938,639.3281 99.4844,639.1094 Q98.875,638.8906 98.25,638.8906 Q97.4844,638.8906 96.8438,639.2188 Q96.2188,639.5469 95.7188,640.2969 Q95.2344,641.0469 95.2344,642.0781 L95.2344,643.1719 Q95.2344,644.4063 96.125,645.2344 Q97.0156,646.0469 98.6094,646.0469 Q99.5469,646.0469 100.2031,645.7969 Q100.5938,645.6406 101.0156,645.2031 Q101.2813,644.9375 101.4219,644.8594 Q101.5781,644.7813 101.7813,644.7813 Q102.1094,644.7813 102.3594,645.0469 Q102.625,645.2969 102.625,645.6406 Q102.625,645.9844 102.2813,646.3906 Q101.7813,646.9688 100.9844,647.2969 Q99.9063,647.75 98.6094,647.75 Q97.0938,647.75 95.8906,647.125 Q94.9063,646.625 94.2188,645.5625 Q93.5313,644.4844 93.5313,643.2031 L93.5313,642.0469 Q93.5313,640.7188 94.1406,639.5781 Q94.7656,638.4219 95.8594,637.8125 Q96.9531,637.1875 98.1875,637.1875 Q98.9219,637.1875 99.5625,637.3594 Q100.2188,637.5156 100.7656,637.875 Z " fill="#000000"/><text fill="#000000" font-family="sans-serif" font-size="12" lengthAdjust="spacing" textLength="69" x="112" y="646.9102">Positionning</text><line style="stroke:#A80036;stroke-width:1.5;" x1="84" x2="183" y1="658" y2="658"/><line style="stroke:#A80036;stroke-width:1.5;" x1="84" x2="183" y1="666" y2="666"/><!--MD5=[835bad395098f52ee842b03fc2a373b9]
class Cartographer--><rect codeLine="44" fill="#FEFECE" height="48" id="Cartographer" style="stroke:#A80036;stroke-width:1.5;" width="105" x="81" y="750"/><ellipse cx="96" cy="766" fill="#ADD1B2" rx="11" ry="11" style="stroke:#A80036;stroke-width:1.0;"/><path d="M98.7656,761.875 Q98.9219,761.6563 99.1094,761.5469 Q99.2969,761.4375 99.5156,761.4375 Q99.8906,761.4375 100.125,761.7031 Q100.3594,761.9531 100.3594,762.5625 L100.3594,764.0156 Q100.3594,764.625 100.125,764.8906 Q99.8906,765.1563 99.5156,765.1563 Q99.1719,765.1563 98.9688,764.9531 Q98.7656,764.7656 98.6563,764.25 Q98.6094,763.8906 98.4219,763.7031 Q98.0938,763.3281 97.4844,763.1094 Q96.875,762.8906 96.25,762.8906 Q95.4844,762.8906 94.8438,763.2188 Q94.2188,763.5469 93.7188,764.2969 Q93.2344,765.0469 93.2344,766.0781 L93.2344,767.1719 Q93.2344,768.4063 94.125,769.2344 Q95.0156,770.0469 96.6094,770.0469 Q97.5469,770.0469 98.2031,769.7969 Q98.5938,769.6406 99.0156,769.2031 Q99.2813,768.9375 99.4219,768.8594 Q99.5781,768.7813 99.7813,768.7813 Q100.1094,768.7813 100.3594,769.0469 Q100.625,769.2969 100.625,769.6406 Q100.625,769.9844 100.2813,770.3906 Q99.7813,770.9688 98.9844,771.2969 Q97.9063,771.75 96.6094,771.75 Q95.0938,771.75 93.8906,771.125 Q92.9063,770.625 92.2188,769.5625 Q91.5313,768.4844 91.5313,767.2031 L91.5313,766.0469 Q91.5313,764.7188 92.1406,763.5781 Q92.7656,762.4219 93.8594,761.8125 Q94.9531,761.1875 96.1875,761.1875 Q96.9219,761.1875 97.5625,761.3594 Q98.2188,761.5156 98.7656,761.875 Z " fill="#000000"/><text fill="#000000" font-family="sans-serif" font-size="12" lengthAdjust="spacing" textLength="73" x="110" y="770.9102">Cartographer</text><line style="stroke:#A80036;stroke-width:1.5;" x1="82" x2="185" y1="782" y2="782"/><line style="stroke:#A80036;stroke-width:1.5;" x1="82" x2="185" y1="790" y2="790"/><!--MD5=[18b09971d075444345c7d65521db9492]
link ProxyRace to PostmanRacePocket--><path codeLine="51" d="M627.23,221.16 C652.82,220.68 685.77,220.05 715.61,219.49 " fill="none" id="ProxyRace-to-PostmanRacePocket" style="stroke:#A80036;stroke-width:1.0;"/><polygon fill="#A80036" points="720.76,219.39,711.6928,215.5449,715.7607,219.4757,711.8299,223.5437,720.76,219.39" style="stroke:#A80036;stroke-width:1.0;"/><!--MD5=[d202b457fd69ff979895b1847ce9c182]
link ProxyRace to ProtocolRacePocket--><path codeLine="52" d="M627.23,201.67 C656.49,188.22 695.36,170.35 728.22,155.24 " fill="none" id="ProxyRace-to-ProtocolRacePocket" style="stroke:#A80036;stroke-width:1.0;"/><polygon fill="#A80036" points="733.02,153.03,723.1719,153.15,728.476,155.1162,726.5098,160.4204,733.02,153.03" style="stroke:#A80036;stroke-width:1.0;"/><!--MD5=[a16d193d033f9808d3ded159fc0953b4]
link DispatcherRacePocket to PostmanRacePocket--><path codeLine="53" d="M661.27,158.24 C682.86,167.96 706.08,178.42 726.97,187.82 " fill="none" id="DispatcherRacePocket-to-PostmanRacePocket" style="stroke:#A80036;stroke-width:1.0;"/><polygon fill="#A80036" points="731.67,189.94,725.1128,182.5913,727.1128,187.8828,721.8213,189.8829,731.67,189.94" style="stroke:#A80036;stroke-width:1.0;"/><!--MD5=[7612ba226429c07107fc77ba3fdb4092]
link DispatcherRacePocket to ProtocolRacePocket--><path codeLine="54" d="M661.27,123.74 C679.81,123.92 699.57,124.1 718.01,124.28 " fill="none" id="DispatcherRacePocket-to-ProtocolRacePocket" style="stroke:#A80036;stroke-width:1.0;"/><polygon fill="#A80036" points="723.17,124.33,714.2046,120.253,718.1702,124.2871,714.136,128.2527,723.17,124.33" style="stroke:#A80036;stroke-width:1.0;"/><!--MD5=[ed63d627c99feb28940aee2694f17c42]
link ProxyRemote to PostmanRemotePocket--><path codeLine="56" d="M186.07,353.09 C212.3,352.62 244.87,352.05 274.75,351.52 " fill="none" id="ProxyRemote-to-PostmanRemotePocket" style="stroke:#A80036;stroke-width:1.0;"/><polygon fill="#A80036" points="279.91,351.43,270.8316,347.6113,274.911,351.5303,270.992,355.6097,279.91,351.43" style="stroke:#A80036;stroke-width:1.0;"/><!--MD5=[28b1ec91dc1ec4e4d599e25729fa22f4]
link ProxyRemote to ProtocolRemotePocket--><path codeLine="57" d="M186.07,331.87 C216.86,318.65 256.4,301.68 290.05,287.24 " fill="none" id="ProxyRemote-to-ProtocolRemotePocket" style="stroke:#A80036;stroke-width:1.0;"/><polygon fill="#A80036" points="294.97,285.13,285.122,284.9987,290.3743,287.0996,288.2734,292.3519,294.97,285.13" style="stroke:#A80036;stroke-width:1.0;"/><!--MD5=[e7a9e95146a008bc7d8b7ae3f6aede37]
link DispatcherRemotePocket to PostmanRemotePocket--><path codeLine="58" d="M218.98,290.51 C242.03,300.2 266.79,310.61 289.04,319.96 " fill="none" id="DispatcherRemotePocket-to-PostmanRemotePocket" style="stroke:#A80036;stroke-width:1.0;"/><polygon fill="#A80036" points="293.75,321.94,286.9886,314.7787,289.1367,320.0119,283.9036,322.16,293.75,321.94" style="stroke:#A80036;stroke-width:1.0;"/><!--MD5=[576ee1385050b4d76bd42d3fa77fea6c]
link DispatcherRemotePocket to ProtocolRemotePocket--><path codeLine="59" d="M220.26,255.76 C238.87,255.92 258.52,256.1 277.03,256.26 " fill="none" id="DispatcherRemotePocket-to-ProtocolRemotePocket" style="stroke:#A80036;stroke-width:1.0;"/><polygon fill="#A80036" points="282.22,256.31,273.2546,252.233,277.2202,256.2671,273.186,260.2327,282.22,256.31" style="stroke:#A80036;stroke-width:1.0;"/><!--MD5=[6d3db1fce779d045213b7a4d7c4e2b50]
link Pilot to ProxyRace--><path codeLine="62" d="M398.69,134.65 C421.55,146.88 451.8,162.76 479,176 C496.16,184.35 515.18,193.07 532.09,200.64 " fill="none" id="Pilot-to-ProxyRace" style="stroke:#A80036;stroke-width:1.0;"/><polygon fill="#A80036" points="536.81,202.75,530.206,195.4433,532.2398,200.722,526.9611,202.7557,536.81,202.75" style="stroke:#A80036;stroke-width:1.0;"/><!--MD5=[a1645774ee02b6c289e002f0bbf9e06b]
link DispatcherRemotePocket to Pilot--><path codeLine="63" d="M191.82,219.49 C231.91,194.66 284.46,162.11 320.18,139.98 " fill="none" id="DispatcherRemotePocket-to-Pilot" style="stroke:#A80036;stroke-width:1.0;"/><polygon fill="#A80036" points="324.45,137.33,314.6927,138.6695,320.1996,139.9633,318.9059,145.4702,324.45,137.33" style="stroke:#A80036;stroke-width:1.0;"/><!--MD5=[77ac2445f10d6806a572fc58fabca2b8]
@startuml

left to right direction

skinparam monochrome false
skinparam shadowing false



frame Pocket as "Pocket" #LightYellow {

    folder comRace as "comRace" #WhiteSmoke;line:IndianRed; {

        class DispatcherRacePocket <<active>> <<medium>>
        class  PostmanRacePocket <<medium>>
        class ProxyRace <<medium>>
        class ProtocolRacePocket <<medium>>

    }

    folder comRemote as "comRemote" #WhiteSmoke;line:IndianRed; {
        class DispatcherRemotePocket <<active>> <<medium>>
        class  PostmanRemotePocket <<medium>>
        class ProxyRemote <<medium>>
        class ProtocolRemotePocket <<medium>>

    }

    folder pilot as "pilot" #WhiteSmoke;line:IndianRed; {
        class Pilot <<active>>
    }

    folder localizer as "localizer" #WhiteSmoke;line:IndianRed; {

        folder mapping as "mapping" #WhiteSmoke;line:IndianRed; {
            class Mapper

        }

        folder positionning as "positionning" #WhiteSmoke;line:IndianRed; {
            class Positionning
        }

        folder cartographer as "cartographer" #WhiteSmoke;line:IndianRed; {
            class Cartographer
        }
    }

}

'RACE
ProxyRace - -> PostmanRacePocket
ProxyRace - -> ProtocolRacePocket
DispatcherRacePocket - -> PostmanRacePocket
DispatcherRacePocket - -> ProtocolRacePocket

ProxyRemote - -> PostmanRemotePocket
ProxyRemote - -> ProtocolRemotePocket
DispatcherRemotePocket - -> PostmanRemotePocket
DispatcherRemotePocket - -> ProtocolRemotePocket

'POCKET
Pilot - -> ProxyRace
DispatcherRemotePocket - -> Pilot


@enduml

@startuml

left to right direction

skinparam monochrome false
skinparam shadowing false



frame Pocket as "Pocket" #LightYellow {

    folder comRace as "comRace" #WhiteSmoke;line:IndianRed; {

        class DispatcherRacePocket <<active>> <<medium>>
        class  PostmanRacePocket <<medium>>
        class ProxyRace <<medium>>
        class ProtocolRacePocket <<medium>>

    }

    folder comRemote as "comRemote" #WhiteSmoke;line:IndianRed; {
        class DispatcherRemotePocket <<active>> <<medium>>
        class  PostmanRemotePocket <<medium>>
        class ProxyRemote <<medium>>
        class ProtocolRemotePocket <<medium>>

    }

    folder pilot as "pilot" #WhiteSmoke;line:IndianRed; {
        class Pilot <<active>>
    }

    folder localizer as "localizer" #WhiteSmoke;line:IndianRed; {

        folder mapping as "mapping" #WhiteSmoke;line:IndianRed; {
            class Mapper

        }

        folder positionning as "positionning" #WhiteSmoke;line:IndianRed; {
            class Positionning
        }

        folder cartographer as "cartographer" #WhiteSmoke;line:IndianRed; {
            class Cartographer
        }
    }

}

ProxyRace - -> PostmanRacePocket
ProxyRace - -> ProtocolRacePocket
DispatcherRacePocket - -> PostmanRacePocket
DispatcherRacePocket - -> ProtocolRacePocket

ProxyRemote - -> PostmanRemotePocket
ProxyRemote - -> ProtocolRemotePocket
DispatcherRemotePocket - -> PostmanRemotePocket
DispatcherRemotePocket - -> ProtocolRemotePocket

Pilot - -> ProxyRace
DispatcherRemotePocket - -> Pilot


@enduml

PlantUML version 1.2021.7(Sun May 23 14:40:07 CEST 2021)
(GPL source distribution)
Java Runtime: OpenJDK Runtime Environment
JVM: OpenJDK 64-Bit Server VM
Default Encoding: Cp1252
Language: en
Country: US
--></g></svg>