<?xml version="1.0" encoding="UTF-8" standalone="no"?><svg xmlns="http://www.w3.org/2000/svg" xmlns:xlink="http://www.w3.org/1999/xlink" contentScriptType="application/ecmascript" contentStyleType="text/css" height="574px" preserveAspectRatio="none" style="width:512px;height:574px;background:#FFFFFF;" version="1.1" viewBox="0 0 512 574" width="512px" zoomAndPan="magnify"><defs/><g><!--MD5=[8ff2060685ee74ee40f596f28de6b13f]
cluster MPRemote--><polygon fill="#FFFFE0" points="274,142,284,132,495,132,495,332,485,342,274,342,274,142" style="stroke:#000000;stroke-width:1.5;"/><line style="stroke:#000000;stroke-width:1.5;" x1="485" x2="495" y1="142" y2="132"/><line style="stroke:#000000;stroke-width:1.5;" x1="274" x2="485" y1="142" y2="142"/><line style="stroke:#000000;stroke-width:1.5;" x1="485" x2="485" y1="142" y2="342"/><text fill="#000000" font-family="sans-serif" font-size="14" font-weight="bold" lengthAdjust="spacing" textLength="76" x="342.5" y="159.5332">MPRemote</text><!--MD5=[fda82c5782821ecd7378cf219a05520a]
cluster A7Remote--><polygon fill="#F5F5F5" points="306,199,316,189,463,189,463,300,453,310,306,310,306,199" style="stroke:#000000;stroke-width:1.5;"/><line style="stroke:#000000;stroke-width:1.5;" x1="453" x2="463" y1="199" y2="189"/><line style="stroke:#000000;stroke-width:1.5;" x1="306" x2="453" y1="199" y2="199"/><line style="stroke:#000000;stroke-width:1.5;" x1="453" x2="453" y1="199" y2="310"/><text fill="#000000" font-family="sans-serif" font-size="14" font-weight="bold" lengthAdjust="spacing" textLength="69" x="346" y="216.5332">Cortex-A7</text><!--MD5=[a3d3165b11508faf583b095657ef04b6]
cluster MPRobot--><polygon fill="#FFFFE0" points="16,142,26,132,250,132,250,557,240,567,16,567,16,142" style="stroke:#000000;stroke-width:1.5;"/><line style="stroke:#000000;stroke-width:1.5;" x1="240" x2="250" y1="142" y2="132"/><line style="stroke:#000000;stroke-width:1.5;" x1="16" x2="240" y1="142" y2="142"/><line style="stroke:#000000;stroke-width:1.5;" x1="240" x2="240" y1="142" y2="567"/><text fill="#000000" font-family="sans-serif" font-size="14" font-weight="bold" lengthAdjust="spacing" textLength="64" x="97" y="159.5332">MPRobot</text><!--MD5=[369bd8a7c53b9ac0f4da233714ad37b2]
cluster M4Robot--><polygon fill="#F5F5F5" points="55,199,65,189,204,189,204,300,194,310,55,310,55,199" style="stroke:#000000;stroke-width:1.5;"/><line style="stroke:#000000;stroke-width:1.5;" x1="194" x2="204" y1="199" y2="189"/><line style="stroke:#000000;stroke-width:1.5;" x1="55" x2="194" y1="199" y2="199"/><line style="stroke:#000000;stroke-width:1.5;" x1="194" x2="194" y1="199" y2="310"/><text fill="#000000" font-family="sans-serif" font-size="14" font-weight="bold" lengthAdjust="spacing" textLength="73" x="89" y="216.5332">Cortex-M4</text><!--MD5=[243a8e92e29468c962a7be6fe2dcb69e]
cluster A7Robot--><polygon fill="#F5F5F5" points="63,424,73,414,214,414,214,525,204,535,63,535,63,424" style="stroke:#000000;stroke-width:1.5;"/><line style="stroke:#000000;stroke-width:1.5;" x1="204" x2="214" y1="424" y2="414"/><line style="stroke:#000000;stroke-width:1.5;" x1="63" x2="204" y1="424" y2="424"/><line style="stroke:#000000;stroke-width:1.5;" x1="204" x2="204" y1="424" y2="535"/><text fill="#000000" font-family="sans-serif" font-size="14" font-weight="bold" lengthAdjust="spacing" textLength="69" x="100" y="441.5332">Cortex-A7</text><!--MD5=[7425065d5ecaf9f84cf5f7ac0239ef1c]
entity Remote--><rect fill="#FFFFFF" height="47.6094" style="stroke:#A80036;stroke-width:1.5;" width="89" x="349.5" y="238"/><rect fill="#FFFFFF" height="10" style="stroke:#A80036;stroke-width:1.5;" width="15" x="418.5" y="243"/><rect fill="#FFFFFF" height="2" style="stroke:#A80036;stroke-width:1.5;" width="4" x="416.5" y="245"/><rect fill="#FFFFFF" height="2" style="stroke:#A80036;stroke-width:1.5;" width="4" x="416.5" y="249"/><text fill="#000000" font-family="sans-serif" font-size="14" lengthAdjust="spacing" textLength="49" x="364.5" y="272.5332">Remote</text><!--MD5=[c9bbfe86979b549e7dafe8f779e44b97]
entity Race--><rect fill="#FFFFFF" height="47.6094" style="stroke:#A80036;stroke-width:1.5;" width="73" x="104.5" y="238"/><rect fill="#FFFFFF" height="10" style="stroke:#A80036;stroke-width:1.5;" width="15" x="157.5" y="243"/><rect fill="#FFFFFF" height="2" style="stroke:#A80036;stroke-width:1.5;" width="4" x="155.5" y="245"/><rect fill="#FFFFFF" height="2" style="stroke:#A80036;stroke-width:1.5;" width="4" x="155.5" y="249"/><text fill="#000000" font-family="sans-serif" font-size="14" lengthAdjust="spacing" textLength="33" x="119.5" y="272.5332">Race</text><!--MD5=[29d078137c380bfeba7359ae5650dad4]
entity Pocket--><rect fill="#FFFFFF" height="47.6094" style="stroke:#A80036;stroke-width:1.5;" width="83" x="106.5" y="463"/><rect fill="#FFFFFF" height="10" style="stroke:#A80036;stroke-width:1.5;" width="15" x="169.5" y="468"/><rect fill="#FFFFFF" height="2" style="stroke:#A80036;stroke-width:1.5;" width="4" x="167.5" y="470"/><rect fill="#FFFFFF" height="2" style="stroke:#A80036;stroke-width:1.5;" width="4" x="167.5" y="474"/><text fill="#000000" font-family="sans-serif" font-size="14" lengthAdjust="spacing" textLength="43" x="121.5" y="497.5332">Pocket</text><!--MD5=[74845b89909baf85943bd3fb86195a6b]
entity Motors--><polygon fill="#FEFECE" points="25.5,16,35.5,6,108.5,6,108.5,43.6094,98.5,53.6094,25.5,53.6094,25.5,16" style="stroke:#000000;stroke-width:1.5;"/><line style="stroke:#000000;stroke-width:1.5;" x1="98.5" x2="108.5" y1="16" y2="6"/><line style="stroke:#000000;stroke-width:1.5;" x1="25.5" x2="98.5" y1="16" y2="16"/><line style="stroke:#000000;stroke-width:1.5;" x1="98.5" x2="98.5" y1="16" y2="53.6094"/><text fill="#000000" font-family="sans-serif" font-size="14" lengthAdjust="spacing" textLength="43" x="40.5" y="40.5332">Motors</text><!--MD5=[79fe065a8f7790a47edb43b4efe42814]
link A7Remote to A7Robot--><path d="M305.9876,295.0292 C305.9292,295.2166 305.8705,295.4045 305.8114,295.5929 C303.9205,301.6216 301.6578,308.1734 298.9788,314.9663 C288.2625,342.1375 270.885,373.165 244,390 C229.48,399.09 103.05,386.9 90,398 C86.25,401.19 83.1352,404.9273 80.5559,409.029 C79.9111,410.0544 79.2998,411.1026 78.7204,412.1707 C78.4307,412.7048 78.149,413.2438 77.875,413.7875 " fill="none" id="A7Remote-A7Robot" style="stroke:#A80036;stroke-width:1.0;"/><text fill="#000000" font-family="sans-serif" font-size="13" lengthAdjust="spacing" textLength="100" x="282" y="379.4951">Protocole TCP/IP</text><ellipse cx="166.4488" cy="393.2463" fill="#FFFFFF" rx="6" ry="6" style="stroke:#A80036;stroke-width:1.5;"/><!--MD5=[e3f813859190a841c23d6be46330ba8b]
link M4Robot to A7Robot--><path d="M67.8597,311.0305 C67.866,311.3847 67.8724,311.7402 67.8788,312.0969 C67.9044,313.5238 67.9304,314.9708 67.9567,316.4364 C68.062,322.2987 68.1726,328.4581 68.2867,334.8153 C68.515,347.5298 68.7575,361.0359 69,374.5413 C69.1213,381.2939 69.2425,388.0463 69.362,394.6995 C69.4217,398.0261 69.481,401.3278 69.5396,404.5924 C69.5689,406.2247 69.5981,407.8476 69.627,409.4598 C69.6415,410.2658 69.6559,411.0692 69.6703,411.8696 C69.6775,412.2698 69.6847,412.6693 69.6918,413.0681 C69.6954,413.2675 69.699,413.4666 69.7026,413.6656 " fill="none" id="M4Robot-A7Robot" style="stroke:#A80036;stroke-width:1.0;"/><text fill="#000000" font-family="sans-serif" font-size="13" lengthAdjust="spacing" textLength="151" x="77" y="379.4951">Communication intercoeur</text><ellipse cx="68.638" cy="354.3817" fill="#FFFFFF" rx="6" ry="6" style="stroke:#A80036;stroke-width:1.5;"/><!--MD5=[651aa9baf84bf53ae604b5150038cb7b]
link Motors to M4Robot--><path d="M67,54.32 C67,83.1 67,133.6175 67,177.5025 C67,180.2453 67,182.9622 67,185.6463 C67,186.3173 67,186.9863 67,187.6531 C67,187.9865 67,188.3193 67,188.6516 " fill="none" id="Motors-M4Robot" style="stroke:#A80036;stroke-width:1.0;"/><text fill="#000000" font-family="sans-serif" font-size="13" lengthAdjust="spacing" textLength="171" x="75" y="105.4951">Signal modulation d'impulsion</text><ellipse cx="67" cy="110.2469" fill="#FFFFFF" rx="6" ry="6" style="stroke:#A80036;stroke-width:1.5;"/><!--MD5=[09d70a49023f11e5995fa0a390f1c6a4]
@startuml



skinparam monochrome false
skinparam shadowing false



node MPRemote as MPRemote
node A7Remote as A7Remote
node A7Robot as A7Robot
node M4Robot as M4Robot
node Motors as Motors 


node MPRemote as "MPRemote" #LightYellow {

    node A7Remote as "Cortex-A7" #WhiteSmoke {

        component Remote{

        }
    }
}



node MPRobot as "MPRobot" #LightYellow {

    node M4Robot as "Cortex-M4" #WhiteSmoke {
        component Race{
            
        }
    }

    node A7Robot as "Cortex-A7" #WhiteSmoke{

        component Pocket{
           
        }
    }

}


A7Remote -0- A7Robot : Protocole TCP/IP
M4Robot -0- A7Robot : Communication intercoeur
Motors -0- M4Robot : Signal modulation d'impulsion




@enduml

PlantUML version 1.2021.7(Sun May 23 14:40:07 CEST 2021)
(GPL source distribution)
Java Runtime: OpenJDK Runtime Environment
JVM: OpenJDK 64-Bit Server VM
Default Encoding: Cp1252
Language: en
Country: US
--></g></svg>