<?xml version="1.0" encoding="UTF-8" standalone="no"?><svg xmlns="http://www.w3.org/2000/svg" xmlns:xlink="http://www.w3.org/1999/xlink" contentScriptType="application/ecmascript" contentStyleType="text/css" height="436px" preserveAspectRatio="none" style="width:550px;height:436px;background:#FFFFFF;" version="1.1" viewBox="0 0 550 436" width="550px" zoomAndPan="magnify"><defs/><g><!--MD5=[ae30e8cb8476b0af90e9e4b613f59ed4]
cluster Race--><rect fill="#FFFFE0" height="423" style="stroke:#000000;stroke-width:1.5;" width="537" x="7" y="7"/><path d="M52,7 L52,17.6094 L42,27.6094 L7,27.6094 " fill="none" style="stroke:#000000;stroke-width:1.5;"/><text fill="#000000" font-family="sans-serif" font-size="14" font-weight="bold" lengthAdjust="spacing" textLength="35" x="10" y="22.5332">Race</text><!--MD5=[4ca9c1c80f6285315af686bfc82647a2]
cluster comPocket--><polygon fill="#F5F5F5" points="161,167,244,167,251,190.6094,520,190.6094,520,406,161,406,161,167" style="stroke:#CD5C5C;stroke-width:1.5;"/><line style="stroke:#CD5C5C;stroke-width:1.5;" x1="161" x2="251" y1="190.6094" y2="190.6094"/><text fill="#000000" font-family="sans-serif" font-size="14" font-weight="bold" lengthAdjust="spacing" textLength="77" x="165" y="183.5332">comPocket</text><!--MD5=[c7db5048850d45f8b4fff27d693d66bf]
cluster motorRace--><polygon fill="#F5F5F5" points="31,51,113,51,120,74.6094,137,74.6094,137,278.5,31,278.5,31,51" style="stroke:#CD5C5C;stroke-width:1.5;"/><line style="stroke:#CD5C5C;stroke-width:1.5;" x1="31" x2="120" y1="74.6094" y2="74.6094"/><text fill="#000000" font-family="sans-serif" font-size="14" font-weight="bold" lengthAdjust="spacing" textLength="76" x="35" y="67.5332">motorRace</text><!--MD5=[9fc9c077f438fbb19059c16907626dd3]
class PostmanPocketRace--><rect codeLine="9" fill="#FEFECE" height="56.1875" id="PostmanPocketRace" style="stroke:#A80036;stroke-width:1.5;" width="148" x="177" y="334"/><ellipse cx="192" cy="354.0938" fill="#ADD1B2" rx="11" ry="11" style="stroke:#A80036;stroke-width:1.0;"/><path d="M194.7656,349.9688 Q194.9219,349.75 195.1094,349.6406 Q195.2969,349.5313 195.5156,349.5313 Q195.8906,349.5313 196.125,349.7969 Q196.3594,350.0469 196.3594,350.6563 L196.3594,352.1094 Q196.3594,352.7188 196.125,352.9844 Q195.8906,353.25 195.5156,353.25 Q195.1719,353.25 194.9688,353.0469 Q194.7656,352.8594 194.6563,352.3438 Q194.6094,351.9844 194.4219,351.7969 Q194.0938,351.4219 193.4844,351.2031 Q192.875,350.9844 192.25,350.9844 Q191.4844,350.9844 190.8438,351.3125 Q190.2188,351.6406 189.7188,352.3906 Q189.2344,353.1406 189.2344,354.1719 L189.2344,355.2656 Q189.2344,356.5 190.125,357.3281 Q191.0156,358.1406 192.6094,358.1406 Q193.5469,358.1406 194.2031,357.8906 Q194.5938,357.7344 195.0156,357.2969 Q195.2813,357.0313 195.4219,356.9531 Q195.5781,356.875 195.7813,356.875 Q196.1094,356.875 196.3594,357.1406 Q196.625,357.3906 196.625,357.7344 Q196.625,358.0781 196.2813,358.4844 Q195.7813,359.0625 194.9844,359.3906 Q193.9063,359.8438 192.6094,359.8438 Q191.0938,359.8438 189.8906,359.2188 Q188.9063,358.7188 188.2188,357.6563 Q187.5313,356.5781 187.5313,355.2969 L187.5313,354.1406 Q187.5313,352.8125 188.1406,351.6719 Q188.7656,350.5156 189.8594,349.9063 Q190.9531,349.2813 192.1875,349.2813 Q192.9219,349.2813 193.5625,349.4531 Q194.2188,349.6094 194.7656,349.9688 Z " fill="#000000"/><text fill="#000000" font-family="sans-serif" font-size="12" font-style="italic" lengthAdjust="spacing" textLength="60" x="234" y="351.457">«medium»</text><text fill="#000000" font-family="sans-serif" font-size="12" lengthAdjust="spacing" textLength="116" x="206" y="366.5508">PostmanPocketRace</text><line style="stroke:#A80036;stroke-width:1.5;" x1="178" x2="324" y1="374.1875" y2="374.1875"/><line style="stroke:#A80036;stroke-width:1.5;" x1="178" x2="324" y1="382.1875" y2="382.1875"/><!--MD5=[c8f1b31e23eadacf8dff82ce7412fee4]
class DispatcherPocketRace--><rect codeLine="10" fill="#FEFECE" height="71.2813" id="DispatcherPocketRace" style="stroke:#A80036;stroke-width:1.5;" width="158" x="315" y="203"/><ellipse cx="330" cy="230.6406" fill="#ADD1B2" rx="11" ry="11" style="stroke:#A80036;stroke-width:1.0;"/><path d="M332.7656,226.5156 Q332.9219,226.2969 333.1094,226.1875 Q333.2969,226.0781 333.5156,226.0781 Q333.8906,226.0781 334.125,226.3438 Q334.3594,226.5938 334.3594,227.2031 L334.3594,228.6563 Q334.3594,229.2656 334.125,229.5313 Q333.8906,229.7969 333.5156,229.7969 Q333.1719,229.7969 332.9688,229.5938 Q332.7656,229.4063 332.6563,228.8906 Q332.6094,228.5313 332.4219,228.3438 Q332.0938,227.9688 331.4844,227.75 Q330.875,227.5313 330.25,227.5313 Q329.4844,227.5313 328.8438,227.8594 Q328.2188,228.1875 327.7188,228.9375 Q327.2344,229.6875 327.2344,230.7188 L327.2344,231.8125 Q327.2344,233.0469 328.125,233.875 Q329.0156,234.6875 330.6094,234.6875 Q331.5469,234.6875 332.2031,234.4375 Q332.5938,234.2813 333.0156,233.8438 Q333.2813,233.5781 333.4219,233.5 Q333.5781,233.4219 333.7813,233.4219 Q334.1094,233.4219 334.3594,233.6875 Q334.625,233.9375 334.625,234.2813 Q334.625,234.625 334.2813,235.0313 Q333.7813,235.6094 332.9844,235.9375 Q331.9063,236.3906 330.6094,236.3906 Q329.0938,236.3906 327.8906,235.7656 Q326.9063,235.2656 326.2188,234.2031 Q325.5313,233.125 325.5313,231.8438 L325.5313,230.6875 Q325.5313,229.3594 326.1406,228.2188 Q326.7656,227.0625 327.8594,226.4531 Q328.9531,225.8281 330.1875,225.8281 Q330.9219,225.8281 331.5625,226 Q332.2188,226.1563 332.7656,226.5156 Z " fill="#000000"/><text fill="#000000" font-family="sans-serif" font-size="12" font-style="italic" lengthAdjust="spacing" textLength="46" x="384" y="220.457">«active»</text><text fill="#000000" font-family="sans-serif" font-size="12" font-style="italic" lengthAdjust="spacing" textLength="60" x="377" y="235.5508">«medium»</text><text fill="#000000" font-family="sans-serif" font-size="12" lengthAdjust="spacing" textLength="126" x="344" y="250.6445">DispatcherPocketRace</text><line style="stroke:#A80036;stroke-width:1.5;" x1="316" x2="472" y1="258.2813" y2="258.2813"/><line style="stroke:#A80036;stroke-width:1.5;" x1="316" x2="472" y1="266.2813" y2="266.2813"/><!--MD5=[e4f8c8d24adbe45a9310ef8e1d352115]
class ProtocolPocketRace--><rect codeLine="11" fill="#FEFECE" height="56.1875" id="ProtocolPocketRace" style="stroke:#A80036;stroke-width:1.5;" width="143" x="360.5" y="334"/><ellipse cx="375.5" cy="354.0938" fill="#ADD1B2" rx="11" ry="11" style="stroke:#A80036;stroke-width:1.0;"/><path d="M378.2656,349.9688 Q378.4219,349.75 378.6094,349.6406 Q378.7969,349.5313 379.0156,349.5313 Q379.3906,349.5313 379.625,349.7969 Q379.8594,350.0469 379.8594,350.6563 L379.8594,352.1094 Q379.8594,352.7188 379.625,352.9844 Q379.3906,353.25 379.0156,353.25 Q378.6719,353.25 378.4688,353.0469 Q378.2656,352.8594 378.1563,352.3438 Q378.1094,351.9844 377.9219,351.7969 Q377.5938,351.4219 376.9844,351.2031 Q376.375,350.9844 375.75,350.9844 Q374.9844,350.9844 374.3438,351.3125 Q373.7188,351.6406 373.2188,352.3906 Q372.7344,353.1406 372.7344,354.1719 L372.7344,355.2656 Q372.7344,356.5 373.625,357.3281 Q374.5156,358.1406 376.1094,358.1406 Q377.0469,358.1406 377.7031,357.8906 Q378.0938,357.7344 378.5156,357.2969 Q378.7813,357.0313 378.9219,356.9531 Q379.0781,356.875 379.2813,356.875 Q379.6094,356.875 379.8594,357.1406 Q380.125,357.3906 380.125,357.7344 Q380.125,358.0781 379.7813,358.4844 Q379.2813,359.0625 378.4844,359.3906 Q377.4063,359.8438 376.1094,359.8438 Q374.5938,359.8438 373.3906,359.2188 Q372.4063,358.7188 371.7188,357.6563 Q371.0313,356.5781 371.0313,355.2969 L371.0313,354.1406 Q371.0313,352.8125 371.6406,351.6719 Q372.2656,350.5156 373.3594,349.9063 Q374.4531,349.2813 375.6875,349.2813 Q376.4219,349.2813 377.0625,349.4531 Q377.7188,349.6094 378.2656,349.9688 Z " fill="#000000"/><text fill="#000000" font-family="sans-serif" font-size="12" font-style="italic" lengthAdjust="spacing" textLength="60" x="415" y="351.457">«medium»</text><text fill="#000000" font-family="sans-serif" font-size="12" lengthAdjust="spacing" textLength="111" x="389.5" y="366.5508">ProtocolPocketRace</text><line style="stroke:#A80036;stroke-width:1.5;" x1="361.5" x2="502.5" y1="374.1875" y2="374.1875"/><line style="stroke:#A80036;stroke-width:1.5;" x1="361.5" x2="502.5" y1="382.1875" y2="382.1875"/><!--MD5=[9de5ec17b61bd198bf589a441aae3f4a]
class ProxyPilot--><rect codeLine="12" fill="#FEFECE" height="56.1875" id="ProxyPilot" style="stroke:#A80036;stroke-width:1.5;" width="88" x="192" y="210.5"/><ellipse cx="207" cy="230.5938" fill="#ADD1B2" rx="11" ry="11" style="stroke:#A80036;stroke-width:1.0;"/><path d="M209.7656,226.4688 Q209.9219,226.25 210.1094,226.1406 Q210.2969,226.0313 210.5156,226.0313 Q210.8906,226.0313 211.125,226.2969 Q211.3594,226.5469 211.3594,227.1563 L211.3594,228.6094 Q211.3594,229.2188 211.125,229.4844 Q210.8906,229.75 210.5156,229.75 Q210.1719,229.75 209.9688,229.5469 Q209.7656,229.3594 209.6563,228.8438 Q209.6094,228.4844 209.4219,228.2969 Q209.0938,227.9219 208.4844,227.7031 Q207.875,227.4844 207.25,227.4844 Q206.4844,227.4844 205.8438,227.8125 Q205.2188,228.1406 204.7188,228.8906 Q204.2344,229.6406 204.2344,230.6719 L204.2344,231.7656 Q204.2344,233 205.125,233.8281 Q206.0156,234.6406 207.6094,234.6406 Q208.5469,234.6406 209.2031,234.3906 Q209.5938,234.2344 210.0156,233.7969 Q210.2813,233.5313 210.4219,233.4531 Q210.5781,233.375 210.7813,233.375 Q211.1094,233.375 211.3594,233.6406 Q211.625,233.8906 211.625,234.2344 Q211.625,234.5781 211.2813,234.9844 Q210.7813,235.5625 209.9844,235.8906 Q208.9063,236.3438 207.6094,236.3438 Q206.0938,236.3438 204.8906,235.7188 Q203.9063,235.2188 203.2188,234.1563 Q202.5313,233.0781 202.5313,231.7969 L202.5313,230.6406 Q202.5313,229.3125 203.1406,228.1719 Q203.7656,227.0156 204.8594,226.4063 Q205.9531,225.7813 207.1875,225.7813 Q207.9219,225.7813 208.5625,225.9531 Q209.2188,226.1094 209.7656,226.4688 Z " fill="#000000"/><text fill="#000000" font-family="sans-serif" font-size="12" font-style="italic" lengthAdjust="spacing" textLength="60" x="219" y="227.957">«medium»</text><text fill="#000000" font-family="sans-serif" font-size="12" lengthAdjust="spacing" textLength="53" x="222.5" y="243.0508">ProxyPilot</text><line style="stroke:#A80036;stroke-width:1.5;" x1="193" x2="279" y1="250.6875" y2="250.6875"/><line style="stroke:#A80036;stroke-width:1.5;" x1="193" x2="279" y1="258.6875" y2="258.6875"/><!--MD5=[60fb4f72b7635aa97affd2efc062a79f]
class Robot--><rect codeLine="16" fill="#FEFECE" height="56.1875" id="Robot" style="stroke:#A80036;stroke-width:1.5;" width="74" x="47" y="87"/><ellipse cx="62" cy="107.0938" fill="#ADD1B2" rx="11" ry="11" style="stroke:#A80036;stroke-width:1.0;"/><path d="M64.7656,102.9688 Q64.9219,102.75 65.1094,102.6406 Q65.2969,102.5313 65.5156,102.5313 Q65.8906,102.5313 66.125,102.7969 Q66.3594,103.0469 66.3594,103.6563 L66.3594,105.1094 Q66.3594,105.7188 66.125,105.9844 Q65.8906,106.25 65.5156,106.25 Q65.1719,106.25 64.9688,106.0469 Q64.7656,105.8594 64.6563,105.3438 Q64.6094,104.9844 64.4219,104.7969 Q64.0938,104.4219 63.4844,104.2031 Q62.875,103.9844 62.25,103.9844 Q61.4844,103.9844 60.8438,104.3125 Q60.2188,104.6406 59.7188,105.3906 Q59.2344,106.1406 59.2344,107.1719 L59.2344,108.2656 Q59.2344,109.5 60.125,110.3281 Q61.0156,111.1406 62.6094,111.1406 Q63.5469,111.1406 64.2031,110.8906 Q64.5938,110.7344 65.0156,110.2969 Q65.2813,110.0313 65.4219,109.9531 Q65.5781,109.875 65.7813,109.875 Q66.1094,109.875 66.3594,110.1406 Q66.625,110.3906 66.625,110.7344 Q66.625,111.0781 66.2813,111.4844 Q65.7813,112.0625 64.9844,112.3906 Q63.9063,112.8438 62.6094,112.8438 Q61.0938,112.8438 59.8906,112.2188 Q58.9063,111.7188 58.2188,110.6563 Q57.5313,109.5781 57.5313,108.2969 L57.5313,107.1406 Q57.5313,105.8125 58.1406,104.6719 Q58.7656,103.5156 59.8594,102.9063 Q60.9531,102.2813 62.1875,102.2813 Q62.9219,102.2813 63.5625,102.4531 Q64.2188,102.6094 64.7656,102.9688 Z " fill="#000000"/><text fill="#000000" font-family="sans-serif" font-size="12" font-style="italic" lengthAdjust="spacing" textLength="46" x="74" y="104.457">«active»</text><text fill="#000000" font-family="sans-serif" font-size="12" lengthAdjust="spacing" textLength="33" x="80.5" y="119.5508">Robot</text><line style="stroke:#A80036;stroke-width:1.5;" x1="48" x2="120" y1="127.1875" y2="127.1875"/><line style="stroke:#A80036;stroke-width:1.5;" x1="48" x2="120" y1="135.1875" y2="135.1875"/><!--MD5=[05f1a7330b1ceb1ed664acf8e30033c9]
class Motor--><rect codeLine="17" fill="#FEFECE" height="48" id="Motor" style="stroke:#A80036;stroke-width:1.5;" width="62" x="53" y="214.5"/><ellipse cx="68" cy="230.5" fill="#ADD1B2" rx="11" ry="11" style="stroke:#A80036;stroke-width:1.0;"/><path d="M70.7656,226.375 Q70.9219,226.1563 71.1094,226.0469 Q71.2969,225.9375 71.5156,225.9375 Q71.8906,225.9375 72.125,226.2031 Q72.3594,226.4531 72.3594,227.0625 L72.3594,228.5156 Q72.3594,229.125 72.125,229.3906 Q71.8906,229.6563 71.5156,229.6563 Q71.1719,229.6563 70.9688,229.4531 Q70.7656,229.2656 70.6563,228.75 Q70.6094,228.3906 70.4219,228.2031 Q70.0938,227.8281 69.4844,227.6094 Q68.875,227.3906 68.25,227.3906 Q67.4844,227.3906 66.8438,227.7188 Q66.2188,228.0469 65.7188,228.7969 Q65.2344,229.5469 65.2344,230.5781 L65.2344,231.6719 Q65.2344,232.9063 66.125,233.7344 Q67.0156,234.5469 68.6094,234.5469 Q69.5469,234.5469 70.2031,234.2969 Q70.5938,234.1406 71.0156,233.7031 Q71.2813,233.4375 71.4219,233.3594 Q71.5781,233.2813 71.7813,233.2813 Q72.1094,233.2813 72.3594,233.5469 Q72.625,233.7969 72.625,234.1406 Q72.625,234.4844 72.2813,234.8906 Q71.7813,235.4688 70.9844,235.7969 Q69.9063,236.25 68.6094,236.25 Q67.0938,236.25 65.8906,235.625 Q64.9063,235.125 64.2188,234.0625 Q63.5313,232.9844 63.5313,231.7031 L63.5313,230.5469 Q63.5313,229.2188 64.1406,228.0781 Q64.7656,226.9219 65.8594,226.3125 Q66.9531,225.6875 68.1875,225.6875 Q68.9219,225.6875 69.5625,225.8594 Q70.2188,226.0156 70.7656,226.375 Z " fill="#000000"/><text fill="#000000" font-family="sans-serif" font-size="12" lengthAdjust="spacing" textLength="30" x="82" y="235.4102">Motor</text><line style="stroke:#A80036;stroke-width:1.5;" x1="54" x2="114" y1="246.5" y2="246.5"/><line style="stroke:#A80036;stroke-width:1.5;" x1="54" x2="114" y1="254.5" y2="254.5"/><!--MD5=[57154207ef22d8c6a2ec4d5107604437]
link DispatcherPocketRace to PostmanPocketRace--><path codeLine="22" d="M353.02,274.32 C332.13,292.07 306.96,313.45 286.85,330.54 " fill="none" id="DispatcherPocketRace-to-PostmanPocketRace" style="stroke:#A80036;stroke-width:1.0;"/><polygon fill="#A80036" points="282.9,333.9,292.3477,331.1179,286.7093,330.6613,287.1659,325.0229,282.9,333.9" style="stroke:#A80036;stroke-width:1.0;"/><!--MD5=[1b0a117850138f9d4e58ff6343c72df5]
link ProxyPilot to PostmanPocketRace--><path codeLine="23" d="M239.37,266.77 C241.62,285.06 244.61,309.24 246.99,328.52 " fill="none" id="ProxyPilot-to-PostmanPocketRace" style="stroke:#A80036;stroke-width:1.0;"/><polygon fill="#A80036" points="247.64,333.82,250.5028,324.3964,247.0251,328.858,242.5636,325.3802,247.64,333.82" style="stroke:#A80036;stroke-width:1.0;"/><!--MD5=[e83f9e02b37c5d7c3a9a988aec1ba336]
link ProxyPilot to ProtocolPocketRace--><path codeLine="24" d="M270.14,266.74 C279.03,273.45 288.72,280.45 298,286.5 C322.45,302.45 350.54,318.41 374.67,331.44 " fill="none" id="ProxyPilot-to-ProtocolPocketRace" style="stroke:#A80036;stroke-width:1.0;"/><polygon fill="#A80036" points="379.13,333.84,373.1052,326.0489,374.7286,331.4678,369.3096,333.0912,379.13,333.84" style="stroke:#A80036;stroke-width:1.0;"/><!--MD5=[7faca791f55b66cbc8e9c6464e1e42cf]
link DispatcherPocketRace to ProtocolPocketRace--><path codeLine="25" d="M404.89,274.32 C410.26,291.48 416.68,312.03 421.94,328.82 " fill="none" id="DispatcherPocketRace-to-ProtocolPocketRace" style="stroke:#A80036;stroke-width:1.0;"/><polygon fill="#A80036" points="423.52,333.9,424.6635,324.1177,422.0335,329.1261,417.0252,326.4961,423.52,333.9" style="stroke:#A80036;stroke-width:1.0;"/><!--MD5=[4221b9dea11eee23d7a2a313875dbf86]
link Robot to ProxyPilot--><path codeLine="27" d="M118.11,143.27 C141.78,162.18 173.32,187.4 197.82,206.98 " fill="none" id="Robot-to-ProxyPilot" style="stroke:#A80036;stroke-width:1.0;"/><polygon fill="#A80036" points="202,210.32,197.4827,201.5682,198.0998,207.1913,192.4768,207.8085,202,210.32" style="stroke:#A80036;stroke-width:1.0;"/><!--MD5=[2460062deede45f98d8133e6e1f701e6]
link Robot to Motor--><path codeLine="28" d="M84,143.27 C84,162.92 84,189.37 84,209.25 " fill="none" id="Robot-to-Motor" style="stroke:#A80036;stroke-width:1.0;"/><polygon fill="#A80036" points="84,214.41,88,205.41,84,209.41,80,205.41,84,214.41" style="stroke:#A80036;stroke-width:1.0;"/><!--MD5=[a18b6a6c51fefd4857e6c0b055cd85f6]
link DispatcherPocketRace to Robot--><path codeLine="29" d="M359.97,202.73 C342.78,187.09 320.77,169.77 298,159 C242.26,132.63 170.91,122.41 126.32,118.46 " fill="none" id="DispatcherPocketRace-to-Robot" style="stroke:#A80036;stroke-width:1.0;"/><polygon fill="#A80036" points="121.29,118.03,129.9132,122.7882,126.2715,118.4594,130.6003,114.8178,121.29,118.03" style="stroke:#A80036;stroke-width:1.0;"/><!--MD5=[2973826fc3e5487cf9ea804d9b33d452]
@startuml


skinparam monochrome false
skinparam shadowing false

frame Race as "Race" #LightYellow {

    folder comPocket as "comPocket" #WhiteSmoke;line:IndianRed; {
        class PostmanPocketRace <<medium>>
        class DispatcherPocketRace <<active>> <<medium>> 
        class ProtocolPocketRace <<medium>>
        class ProxyPilot <<medium>>
    }

    folder motorRace as "motorRace" #WhiteSmoke;line:IndianRed; {
        class Robot <<active>>
        class Motor
    }

}

DispatcherPocketRace - -> PostmanPocketRace
ProxyPilot - -> PostmanPocketRace
ProxyPilot - -> ProtocolPocketRace
DispatcherPocketRace - -> ProtocolPocketRace

Robot - -> ProxyPilot
Robot - -> Motor
DispatcherPocketRace -> Robot




@enduml

PlantUML version 1.2021.7(Sun May 23 14:40:07 CEST 2021)
(GPL source distribution)
Java Runtime: OpenJDK Runtime Environment
JVM: OpenJDK 64-Bit Server VM
Default Encoding: Cp1252
Language: en
Country: US
--></g></svg>