<?xml version="1.0" encoding="UTF-8" standalone="no"?><svg xmlns="http://www.w3.org/2000/svg" xmlns:xlink="http://www.w3.org/1999/xlink" contentScriptType="application/ecmascript" contentStyleType="text/css" height="436px" preserveAspectRatio="none" style="width:867px;height:436px;background:#FFFFFF;" version="1.1" viewBox="0 0 867 436" width="867px" zoomAndPan="magnify"><defs/><g><!--MD5=[ae30e8cb8476b0af90e9e4b613f59ed4]
cluster Race--><rect fill="#FFFFE0" height="423" style="stroke:#000000;stroke-width:1.5;" width="854" x="7" y="7"/><path d="M52,7 L52,17.6094 L42,27.6094 L7,27.6094 " fill="none" style="stroke:#000000;stroke-width:1.5;"/><text fill="#000000" font-family="sans-serif" font-size="14" font-weight="bold" lengthAdjust="spacing" textLength="35" x="10" y="22.5332">Race</text><!--MD5=[4ca9c1c80f6285315af686bfc82647a2]
cluster comPocket--><polygon fill="#F5F5F5" points="478,167,561,167,568,190.6094,837,190.6094,837,406,478,406,478,167" style="stroke:#CD5C5C;stroke-width:1.5;"/><line style="stroke:#CD5C5C;stroke-width:1.5;" x1="478" x2="568" y1="190.6094" y2="190.6094"/><text fill="#000000" font-family="sans-serif" font-size="14" font-weight="bold" lengthAdjust="spacing" textLength="77" x="482" y="183.5332">comPocket</text><!--MD5=[c7db5048850d45f8b4fff27d693d66bf]
cluster motorRace--><polygon fill="#F5F5F5" points="348,51,430,51,437,74.6094,454,74.6094,454,278.5,348,278.5,348,51" style="stroke:#CD5C5C;stroke-width:1.5;"/><line style="stroke:#CD5C5C;stroke-width:1.5;" x1="348" x2="437" y1="74.6094" y2="74.6094"/><text fill="#000000" font-family="sans-serif" font-size="14" font-weight="bold" lengthAdjust="spacing" textLength="76" x="352" y="67.5332">motorRace</text><!--MD5=[aca60d27538f5919cce3218d9b570e8e]
cluster sensorManager--><polygon fill="#F5F5F5" points="31,55,148,55,155,78.6094,324,78.6094,324,282.5,31,282.5,31,55" style="stroke:#CD5C5C;stroke-width:1.5;"/><line style="stroke:#CD5C5C;stroke-width:1.5;" x1="31" x2="155" y1="78.6094" y2="78.6094"/><text fill="#000000" font-family="sans-serif" font-size="14" font-weight="bold" lengthAdjust="spacing" textLength="111" x="35" y="71.5332">sensorManager</text><!--MD5=[9fc9c077f438fbb19059c16907626dd3]
class PostmanPocketRace--><rect codeLine="9" fill="#FEFECE" height="56.1875" id="PostmanPocketRace" style="stroke:#A80036;stroke-width:1.5;" width="148" x="494" y="334"/><ellipse cx="509" cy="354.0938" fill="#ADD1B2" rx="11" ry="11" style="stroke:#A80036;stroke-width:1.0;"/><path d="M511.7656,349.9688 Q511.9219,349.75 512.1094,349.6406 Q512.2969,349.5313 512.5156,349.5313 Q512.8906,349.5313 513.125,349.7969 Q513.3594,350.0469 513.3594,350.6563 L513.3594,352.1094 Q513.3594,352.7188 513.125,352.9844 Q512.8906,353.25 512.5156,353.25 Q512.1719,353.25 511.9688,353.0469 Q511.7656,352.8594 511.6563,352.3438 Q511.6094,351.9844 511.4219,351.7969 Q511.0938,351.4219 510.4844,351.2031 Q509.875,350.9844 509.25,350.9844 Q508.4844,350.9844 507.8438,351.3125 Q507.2188,351.6406 506.7188,352.3906 Q506.2344,353.1406 506.2344,354.1719 L506.2344,355.2656 Q506.2344,356.5 507.125,357.3281 Q508.0156,358.1406 509.6094,358.1406 Q510.5469,358.1406 511.2031,357.8906 Q511.5938,357.7344 512.0156,357.2969 Q512.2813,357.0313 512.4219,356.9531 Q512.5781,356.875 512.7813,356.875 Q513.1094,356.875 513.3594,357.1406 Q513.625,357.3906 513.625,357.7344 Q513.625,358.0781 513.2813,358.4844 Q512.7813,359.0625 511.9844,359.3906 Q510.9063,359.8438 509.6094,359.8438 Q508.0938,359.8438 506.8906,359.2188 Q505.9063,358.7188 505.2188,357.6563 Q504.5313,356.5781 504.5313,355.2969 L504.5313,354.1406 Q504.5313,352.8125 505.1406,351.6719 Q505.7656,350.5156 506.8594,349.9063 Q507.9531,349.2813 509.1875,349.2813 Q509.9219,349.2813 510.5625,349.4531 Q511.2188,349.6094 511.7656,349.9688 Z " fill="#000000"/><text fill="#000000" font-family="sans-serif" font-size="12" font-style="italic" lengthAdjust="spacing" textLength="60" x="551" y="351.457">«medium»</text><text fill="#000000" font-family="sans-serif" font-size="12" lengthAdjust="spacing" textLength="116" x="523" y="366.5508">PostmanPocketRace</text><line style="stroke:#A80036;stroke-width:1.5;" x1="495" x2="641" y1="374.1875" y2="374.1875"/><line style="stroke:#A80036;stroke-width:1.5;" x1="495" x2="641" y1="382.1875" y2="382.1875"/><!--MD5=[c8f1b31e23eadacf8dff82ce7412fee4]
class DispatcherPocketRace--><rect codeLine="10" fill="#FEFECE" height="71.2813" id="DispatcherPocketRace" style="stroke:#A80036;stroke-width:1.5;" width="158" x="632" y="203"/><ellipse cx="647" cy="230.6406" fill="#ADD1B2" rx="11" ry="11" style="stroke:#A80036;stroke-width:1.0;"/><path d="M649.7656,226.5156 Q649.9219,226.2969 650.1094,226.1875 Q650.2969,226.0781 650.5156,226.0781 Q650.8906,226.0781 651.125,226.3438 Q651.3594,226.5938 651.3594,227.2031 L651.3594,228.6563 Q651.3594,229.2656 651.125,229.5313 Q650.8906,229.7969 650.5156,229.7969 Q650.1719,229.7969 649.9688,229.5938 Q649.7656,229.4063 649.6563,228.8906 Q649.6094,228.5313 649.4219,228.3438 Q649.0938,227.9688 648.4844,227.75 Q647.875,227.5313 647.25,227.5313 Q646.4844,227.5313 645.8438,227.8594 Q645.2188,228.1875 644.7188,228.9375 Q644.2344,229.6875 644.2344,230.7188 L644.2344,231.8125 Q644.2344,233.0469 645.125,233.875 Q646.0156,234.6875 647.6094,234.6875 Q648.5469,234.6875 649.2031,234.4375 Q649.5938,234.2813 650.0156,233.8438 Q650.2813,233.5781 650.4219,233.5 Q650.5781,233.4219 650.7813,233.4219 Q651.1094,233.4219 651.3594,233.6875 Q651.625,233.9375 651.625,234.2813 Q651.625,234.625 651.2813,235.0313 Q650.7813,235.6094 649.9844,235.9375 Q648.9063,236.3906 647.6094,236.3906 Q646.0938,236.3906 644.8906,235.7656 Q643.9063,235.2656 643.2188,234.2031 Q642.5313,233.125 642.5313,231.8438 L642.5313,230.6875 Q642.5313,229.3594 643.1406,228.2188 Q643.7656,227.0625 644.8594,226.4531 Q645.9531,225.8281 647.1875,225.8281 Q647.9219,225.8281 648.5625,226 Q649.2188,226.1563 649.7656,226.5156 Z " fill="#000000"/><text fill="#000000" font-family="sans-serif" font-size="12" font-style="italic" lengthAdjust="spacing" textLength="46" x="701" y="220.457">«active»</text><text fill="#000000" font-family="sans-serif" font-size="12" font-style="italic" lengthAdjust="spacing" textLength="60" x="694" y="235.5508">«medium»</text><text fill="#000000" font-family="sans-serif" font-size="12" lengthAdjust="spacing" textLength="126" x="661" y="250.6445">DispatcherPocketRace</text><line style="stroke:#A80036;stroke-width:1.5;" x1="633" x2="789" y1="258.2813" y2="258.2813"/><line style="stroke:#A80036;stroke-width:1.5;" x1="633" x2="789" y1="266.2813" y2="266.2813"/><!--MD5=[e4f8c8d24adbe45a9310ef8e1d352115]
class ProtocolPocketRace--><rect codeLine="11" fill="#FEFECE" height="56.1875" id="ProtocolPocketRace" style="stroke:#A80036;stroke-width:1.5;" width="143" x="677.5" y="334"/><ellipse cx="692.5" cy="354.0938" fill="#ADD1B2" rx="11" ry="11" style="stroke:#A80036;stroke-width:1.0;"/><path d="M695.2656,349.9688 Q695.4219,349.75 695.6094,349.6406 Q695.7969,349.5313 696.0156,349.5313 Q696.3906,349.5313 696.625,349.7969 Q696.8594,350.0469 696.8594,350.6563 L696.8594,352.1094 Q696.8594,352.7188 696.625,352.9844 Q696.3906,353.25 696.0156,353.25 Q695.6719,353.25 695.4688,353.0469 Q695.2656,352.8594 695.1563,352.3438 Q695.1094,351.9844 694.9219,351.7969 Q694.5938,351.4219 693.9844,351.2031 Q693.375,350.9844 692.75,350.9844 Q691.9844,350.9844 691.3438,351.3125 Q690.7188,351.6406 690.2188,352.3906 Q689.7344,353.1406 689.7344,354.1719 L689.7344,355.2656 Q689.7344,356.5 690.625,357.3281 Q691.5156,358.1406 693.1094,358.1406 Q694.0469,358.1406 694.7031,357.8906 Q695.0938,357.7344 695.5156,357.2969 Q695.7813,357.0313 695.9219,356.9531 Q696.0781,356.875 696.2813,356.875 Q696.6094,356.875 696.8594,357.1406 Q697.125,357.3906 697.125,357.7344 Q697.125,358.0781 696.7813,358.4844 Q696.2813,359.0625 695.4844,359.3906 Q694.4063,359.8438 693.1094,359.8438 Q691.5938,359.8438 690.3906,359.2188 Q689.4063,358.7188 688.7188,357.6563 Q688.0313,356.5781 688.0313,355.2969 L688.0313,354.1406 Q688.0313,352.8125 688.6406,351.6719 Q689.2656,350.5156 690.3594,349.9063 Q691.4531,349.2813 692.6875,349.2813 Q693.4219,349.2813 694.0625,349.4531 Q694.7188,349.6094 695.2656,349.9688 Z " fill="#000000"/><text fill="#000000" font-family="sans-serif" font-size="12" font-style="italic" lengthAdjust="spacing" textLength="60" x="732" y="351.457">«medium»</text><text fill="#000000" font-family="sans-serif" font-size="12" lengthAdjust="spacing" textLength="111" x="706.5" y="366.5508">ProtocolPocketRace</text><line style="stroke:#A80036;stroke-width:1.5;" x1="678.5" x2="819.5" y1="374.1875" y2="374.1875"/><line style="stroke:#A80036;stroke-width:1.5;" x1="678.5" x2="819.5" y1="382.1875" y2="382.1875"/><!--MD5=[9de5ec17b61bd198bf589a441aae3f4a]
class ProxyPilot--><rect codeLine="12" fill="#FEFECE" height="56.1875" id="ProxyPilot" style="stroke:#A80036;stroke-width:1.5;" width="88" x="509" y="210.5"/><ellipse cx="524" cy="230.5938" fill="#ADD1B2" rx="11" ry="11" style="stroke:#A80036;stroke-width:1.0;"/><path d="M526.7656,226.4688 Q526.9219,226.25 527.1094,226.1406 Q527.2969,226.0313 527.5156,226.0313 Q527.8906,226.0313 528.125,226.2969 Q528.3594,226.5469 528.3594,227.1563 L528.3594,228.6094 Q528.3594,229.2188 528.125,229.4844 Q527.8906,229.75 527.5156,229.75 Q527.1719,229.75 526.9688,229.5469 Q526.7656,229.3594 526.6563,228.8438 Q526.6094,228.4844 526.4219,228.2969 Q526.0938,227.9219 525.4844,227.7031 Q524.875,227.4844 524.25,227.4844 Q523.4844,227.4844 522.8438,227.8125 Q522.2188,228.1406 521.7188,228.8906 Q521.2344,229.6406 521.2344,230.6719 L521.2344,231.7656 Q521.2344,233 522.125,233.8281 Q523.0156,234.6406 524.6094,234.6406 Q525.5469,234.6406 526.2031,234.3906 Q526.5938,234.2344 527.0156,233.7969 Q527.2813,233.5313 527.4219,233.4531 Q527.5781,233.375 527.7813,233.375 Q528.1094,233.375 528.3594,233.6406 Q528.625,233.8906 528.625,234.2344 Q528.625,234.5781 528.2813,234.9844 Q527.7813,235.5625 526.9844,235.8906 Q525.9063,236.3438 524.6094,236.3438 Q523.0938,236.3438 521.8906,235.7188 Q520.9063,235.2188 520.2188,234.1563 Q519.5313,233.0781 519.5313,231.7969 L519.5313,230.6406 Q519.5313,229.3125 520.1406,228.1719 Q520.7656,227.0156 521.8594,226.4063 Q522.9531,225.7813 524.1875,225.7813 Q524.9219,225.7813 525.5625,225.9531 Q526.2188,226.1094 526.7656,226.4688 Z " fill="#000000"/><text fill="#000000" font-family="sans-serif" font-size="12" font-style="italic" lengthAdjust="spacing" textLength="60" x="536" y="227.957">«medium»</text><text fill="#000000" font-family="sans-serif" font-size="12" lengthAdjust="spacing" textLength="53" x="539.5" y="243.0508">ProxyPilot</text><line style="stroke:#A80036;stroke-width:1.5;" x1="510" x2="596" y1="250.6875" y2="250.6875"/><line style="stroke:#A80036;stroke-width:1.5;" x1="510" x2="596" y1="258.6875" y2="258.6875"/><!--MD5=[60fb4f72b7635aa97affd2efc062a79f]
class Robot--><rect codeLine="16" fill="#FEFECE" height="56.1875" id="Robot" style="stroke:#A80036;stroke-width:1.5;" width="74" x="364" y="87"/><ellipse cx="379" cy="107.0938" fill="#ADD1B2" rx="11" ry="11" style="stroke:#A80036;stroke-width:1.0;"/><path d="M381.7656,102.9688 Q381.9219,102.75 382.1094,102.6406 Q382.2969,102.5313 382.5156,102.5313 Q382.8906,102.5313 383.125,102.7969 Q383.3594,103.0469 383.3594,103.6563 L383.3594,105.1094 Q383.3594,105.7188 383.125,105.9844 Q382.8906,106.25 382.5156,106.25 Q382.1719,106.25 381.9688,106.0469 Q381.7656,105.8594 381.6563,105.3438 Q381.6094,104.9844 381.4219,104.7969 Q381.0938,104.4219 380.4844,104.2031 Q379.875,103.9844 379.25,103.9844 Q378.4844,103.9844 377.8438,104.3125 Q377.2188,104.6406 376.7188,105.3906 Q376.2344,106.1406 376.2344,107.1719 L376.2344,108.2656 Q376.2344,109.5 377.125,110.3281 Q378.0156,111.1406 379.6094,111.1406 Q380.5469,111.1406 381.2031,110.8906 Q381.5938,110.7344 382.0156,110.2969 Q382.2813,110.0313 382.4219,109.9531 Q382.5781,109.875 382.7813,109.875 Q383.1094,109.875 383.3594,110.1406 Q383.625,110.3906 383.625,110.7344 Q383.625,111.0781 383.2813,111.4844 Q382.7813,112.0625 381.9844,112.3906 Q380.9063,112.8438 379.6094,112.8438 Q378.0938,112.8438 376.8906,112.2188 Q375.9063,111.7188 375.2188,110.6563 Q374.5313,109.5781 374.5313,108.2969 L374.5313,107.1406 Q374.5313,105.8125 375.1406,104.6719 Q375.7656,103.5156 376.8594,102.9063 Q377.9531,102.2813 379.1875,102.2813 Q379.9219,102.2813 380.5625,102.4531 Q381.2188,102.6094 381.7656,102.9688 Z " fill="#000000"/><text fill="#000000" font-family="sans-serif" font-size="12" font-style="italic" lengthAdjust="spacing" textLength="46" x="391" y="104.457">«active»</text><text fill="#000000" font-family="sans-serif" font-size="12" lengthAdjust="spacing" textLength="33" x="397.5" y="119.5508">Robot</text><line style="stroke:#A80036;stroke-width:1.5;" x1="365" x2="437" y1="127.1875" y2="127.1875"/><line style="stroke:#A80036;stroke-width:1.5;" x1="365" x2="437" y1="135.1875" y2="135.1875"/><!--MD5=[177c99417b3f511d415a956df9b1f90f]
class Motors--><rect codeLine="17" fill="#FEFECE" height="48" id="Motors" style="stroke:#A80036;stroke-width:1.5;" width="69" x="366.5" y="214.5"/><ellipse cx="381.5" cy="230.5" fill="#ADD1B2" rx="11" ry="11" style="stroke:#A80036;stroke-width:1.0;"/><path d="M384.2656,226.375 Q384.4219,226.1563 384.6094,226.0469 Q384.7969,225.9375 385.0156,225.9375 Q385.3906,225.9375 385.625,226.2031 Q385.8594,226.4531 385.8594,227.0625 L385.8594,228.5156 Q385.8594,229.125 385.625,229.3906 Q385.3906,229.6563 385.0156,229.6563 Q384.6719,229.6563 384.4688,229.4531 Q384.2656,229.2656 384.1563,228.75 Q384.1094,228.3906 383.9219,228.2031 Q383.5938,227.8281 382.9844,227.6094 Q382.375,227.3906 381.75,227.3906 Q380.9844,227.3906 380.3438,227.7188 Q379.7188,228.0469 379.2188,228.7969 Q378.7344,229.5469 378.7344,230.5781 L378.7344,231.6719 Q378.7344,232.9063 379.625,233.7344 Q380.5156,234.5469 382.1094,234.5469 Q383.0469,234.5469 383.7031,234.2969 Q384.0938,234.1406 384.5156,233.7031 Q384.7813,233.4375 384.9219,233.3594 Q385.0781,233.2813 385.2813,233.2813 Q385.6094,233.2813 385.8594,233.5469 Q386.125,233.7969 386.125,234.1406 Q386.125,234.4844 385.7813,234.8906 Q385.2813,235.4688 384.4844,235.7969 Q383.4063,236.25 382.1094,236.25 Q380.5938,236.25 379.3906,235.625 Q378.4063,235.125 377.7188,234.0625 Q377.0313,232.9844 377.0313,231.7031 L377.0313,230.5469 Q377.0313,229.2188 377.6406,228.0781 Q378.2656,226.9219 379.3594,226.3125 Q380.4531,225.6875 381.6875,225.6875 Q382.4219,225.6875 383.0625,225.8594 Q383.7188,226.0156 384.2656,226.375 Z " fill="#000000"/><text fill="#000000" font-family="sans-serif" font-size="12" lengthAdjust="spacing" textLength="37" x="395.5" y="235.4102">Motors</text><line style="stroke:#A80036;stroke-width:1.5;" x1="367.5" x2="434.5" y1="246.5" y2="246.5"/><line style="stroke:#A80036;stroke-width:1.5;" x1="367.5" x2="434.5" y1="254.5" y2="254.5"/><!--MD5=[0ba84e53bd729611031e81c41ad2f1e8]
class Accelerometer--><rect codeLine="21" fill="#FEFECE" height="56.1875" id="Accelerometer" style="stroke:#A80036;stroke-width:1.5;" width="111" x="47.5" y="210.5"/><ellipse cx="62.5" cy="230.5938" fill="#ADD1B2" rx="11" ry="11" style="stroke:#A80036;stroke-width:1.0;"/><path d="M65.2656,226.4688 Q65.4219,226.25 65.6094,226.1406 Q65.7969,226.0313 66.0156,226.0313 Q66.3906,226.0313 66.625,226.2969 Q66.8594,226.5469 66.8594,227.1563 L66.8594,228.6094 Q66.8594,229.2188 66.625,229.4844 Q66.3906,229.75 66.0156,229.75 Q65.6719,229.75 65.4688,229.5469 Q65.2656,229.3594 65.1563,228.8438 Q65.1094,228.4844 64.9219,228.2969 Q64.5938,227.9219 63.9844,227.7031 Q63.375,227.4844 62.75,227.4844 Q61.9844,227.4844 61.3438,227.8125 Q60.7188,228.1406 60.2188,228.8906 Q59.7344,229.6406 59.7344,230.6719 L59.7344,231.7656 Q59.7344,233 60.625,233.8281 Q61.5156,234.6406 63.1094,234.6406 Q64.0469,234.6406 64.7031,234.3906 Q65.0938,234.2344 65.5156,233.7969 Q65.7813,233.5313 65.9219,233.4531 Q66.0781,233.375 66.2813,233.375 Q66.6094,233.375 66.8594,233.6406 Q67.125,233.8906 67.125,234.2344 Q67.125,234.5781 66.7813,234.9844 Q66.2813,235.5625 65.4844,235.8906 Q64.4063,236.3438 63.1094,236.3438 Q61.5938,236.3438 60.3906,235.7188 Q59.4063,235.2188 58.7188,234.1563 Q58.0313,233.0781 58.0313,231.7969 L58.0313,230.6406 Q58.0313,229.3125 58.6406,228.1719 Q59.2656,227.0156 60.3594,226.4063 Q61.4531,225.7813 62.6875,225.7813 Q63.4219,225.7813 64.0625,225.9531 Q64.7188,226.1094 65.2656,226.4688 Z " fill="#000000"/><text fill="#000000" font-family="sans-serif" font-size="12" font-style="italic" lengthAdjust="spacing" textLength="67" x="82.5" y="227.957">«boundary»</text><text fill="#000000" font-family="sans-serif" font-size="12" lengthAdjust="spacing" textLength="79" x="76.5" y="243.0508">Accelerometer</text><line style="stroke:#A80036;stroke-width:1.5;" x1="48.5" x2="157.5" y1="250.6875" y2="250.6875"/><line style="stroke:#A80036;stroke-width:1.5;" x1="48.5" x2="157.5" y1="258.6875" y2="258.6875"/><!--MD5=[aa4cfd8c5ae6c7aafa6ab09caf463fe7]
class ContactSensor--><rect codeLine="22" fill="#FEFECE" height="56.1875" id="ContactSensor" style="stroke:#A80036;stroke-width:1.5;" width="114" x="194" y="210.5"/><ellipse cx="209" cy="230.5938" fill="#ADD1B2" rx="11" ry="11" style="stroke:#A80036;stroke-width:1.0;"/><path d="M211.7656,226.4688 Q211.9219,226.25 212.1094,226.1406 Q212.2969,226.0313 212.5156,226.0313 Q212.8906,226.0313 213.125,226.2969 Q213.3594,226.5469 213.3594,227.1563 L213.3594,228.6094 Q213.3594,229.2188 213.125,229.4844 Q212.8906,229.75 212.5156,229.75 Q212.1719,229.75 211.9688,229.5469 Q211.7656,229.3594 211.6563,228.8438 Q211.6094,228.4844 211.4219,228.2969 Q211.0938,227.9219 210.4844,227.7031 Q209.875,227.4844 209.25,227.4844 Q208.4844,227.4844 207.8438,227.8125 Q207.2188,228.1406 206.7188,228.8906 Q206.2344,229.6406 206.2344,230.6719 L206.2344,231.7656 Q206.2344,233 207.125,233.8281 Q208.0156,234.6406 209.6094,234.6406 Q210.5469,234.6406 211.2031,234.3906 Q211.5938,234.2344 212.0156,233.7969 Q212.2813,233.5313 212.4219,233.4531 Q212.5781,233.375 212.7813,233.375 Q213.1094,233.375 213.3594,233.6406 Q213.625,233.8906 213.625,234.2344 Q213.625,234.5781 213.2813,234.9844 Q212.7813,235.5625 211.9844,235.8906 Q210.9063,236.3438 209.6094,236.3438 Q208.0938,236.3438 206.8906,235.7188 Q205.9063,235.2188 205.2188,234.1563 Q204.5313,233.0781 204.5313,231.7969 L204.5313,230.6406 Q204.5313,229.3125 205.1406,228.1719 Q205.7656,227.0156 206.8594,226.4063 Q207.9531,225.7813 209.1875,225.7813 Q209.9219,225.7813 210.5625,225.9531 Q211.2188,226.1094 211.7656,226.4688 Z " fill="#000000"/><text fill="#000000" font-family="sans-serif" font-size="12" font-style="italic" lengthAdjust="spacing" textLength="67" x="230.5" y="227.957">«boundary»</text><text fill="#000000" font-family="sans-serif" font-size="12" lengthAdjust="spacing" textLength="82" x="223" y="243.0508">ContactSensor</text><line style="stroke:#A80036;stroke-width:1.5;" x1="195" x2="307" y1="250.6875" y2="250.6875"/><line style="stroke:#A80036;stroke-width:1.5;" x1="195" x2="307" y1="258.6875" y2="258.6875"/><!--MD5=[6c00bda421c50fd1beaff3d53de4d8ab]
class Sensors--><rect codeLine="23" fill="#FEFECE" height="48" id="Sensors" style="stroke:#A80036;stroke-width:1.5;" width="79" x="211.5" y="91"/><ellipse cx="226.5" cy="107" fill="#ADD1B2" rx="11" ry="11" style="stroke:#A80036;stroke-width:1.0;"/><path d="M229.2656,102.875 Q229.4219,102.6563 229.6094,102.5469 Q229.7969,102.4375 230.0156,102.4375 Q230.3906,102.4375 230.625,102.7031 Q230.8594,102.9531 230.8594,103.5625 L230.8594,105.0156 Q230.8594,105.625 230.625,105.8906 Q230.3906,106.1563 230.0156,106.1563 Q229.6719,106.1563 229.4688,105.9531 Q229.2656,105.7656 229.1563,105.25 Q229.1094,104.8906 228.9219,104.7031 Q228.5938,104.3281 227.9844,104.1094 Q227.375,103.8906 226.75,103.8906 Q225.9844,103.8906 225.3438,104.2188 Q224.7188,104.5469 224.2188,105.2969 Q223.7344,106.0469 223.7344,107.0781 L223.7344,108.1719 Q223.7344,109.4063 224.625,110.2344 Q225.5156,111.0469 227.1094,111.0469 Q228.0469,111.0469 228.7031,110.7969 Q229.0938,110.6406 229.5156,110.2031 Q229.7813,109.9375 229.9219,109.8594 Q230.0781,109.7813 230.2813,109.7813 Q230.6094,109.7813 230.8594,110.0469 Q231.125,110.2969 231.125,110.6406 Q231.125,110.9844 230.7813,111.3906 Q230.2813,111.9688 229.4844,112.2969 Q228.4063,112.75 227.1094,112.75 Q225.5938,112.75 224.3906,112.125 Q223.4063,111.625 222.7188,110.5625 Q222.0313,109.4844 222.0313,108.2031 L222.0313,107.0469 Q222.0313,105.7188 222.6406,104.5781 Q223.2656,103.4219 224.3594,102.8125 Q225.4531,102.1875 226.6875,102.1875 Q227.4219,102.1875 228.0625,102.3594 Q228.7188,102.5156 229.2656,102.875 Z " fill="#000000"/><text fill="#000000" font-family="sans-serif" font-size="12" lengthAdjust="spacing" textLength="47" x="240.5" y="111.9102">Sensors</text><line style="stroke:#A80036;stroke-width:1.5;" x1="212.5" x2="289.5" y1="123" y2="123"/><line style="stroke:#A80036;stroke-width:1.5;" x1="212.5" x2="289.5" y1="131" y2="131"/><!--MD5=[57154207ef22d8c6a2ec4d5107604437]
link DispatcherPocketRace to PostmanPocketRace--><path codeLine="28" d="M670.02,274.32 C649.13,292.07 623.96,313.45 603.85,330.54 " fill="none" id="DispatcherPocketRace-to-PostmanPocketRace" style="stroke:#A80036;stroke-width:1.0;"/><polygon fill="#A80036" points="599.9,333.9,609.3477,331.1179,603.7093,330.6613,604.1659,325.0229,599.9,333.9" style="stroke:#A80036;stroke-width:1.0;"/><!--MD5=[1b0a117850138f9d4e58ff6343c72df5]
link ProxyPilot to PostmanPocketRace--><path codeLine="29" d="M556.37,266.77 C558.62,285.06 561.61,309.24 563.99,328.52 " fill="none" id="ProxyPilot-to-PostmanPocketRace" style="stroke:#A80036;stroke-width:1.0;"/><polygon fill="#A80036" points="564.64,333.82,567.5028,324.3964,564.0251,328.858,559.5636,325.3802,564.64,333.82" style="stroke:#A80036;stroke-width:1.0;"/><!--MD5=[e83f9e02b37c5d7c3a9a988aec1ba336]
link ProxyPilot to ProtocolPocketRace--><path codeLine="30" d="M583.58,266.74 C593.31,274.82 604.32,283.41 615,290.5 C637.58,305.5 663.71,319.85 686.87,331.65 " fill="none" id="ProxyPilot-to-ProtocolPocketRace" style="stroke:#A80036;stroke-width:1.0;"/><polygon fill="#A80036" points="691.46,333.98,685.238,326.3454,686.9994,331.7211,681.6237,333.4825,691.46,333.98" style="stroke:#A80036;stroke-width:1.0;"/><!--MD5=[7faca791f55b66cbc8e9c6464e1e42cf]
link DispatcherPocketRace to ProtocolPocketRace--><path codeLine="31" d="M721.89,274.32 C727.26,291.48 733.68,312.03 738.94,328.82 " fill="none" id="DispatcherPocketRace-to-ProtocolPocketRace" style="stroke:#A80036;stroke-width:1.0;"/><polygon fill="#A80036" points="740.52,333.9,741.6635,324.1177,739.0335,329.1261,734.0252,326.4961,740.52,333.9" style="stroke:#A80036;stroke-width:1.0;"/><!--MD5=[4221b9dea11eee23d7a2a313875dbf86]
link Robot to ProxyPilot--><path codeLine="33" d="M435.11,143.27 C458.78,162.18 490.32,187.4 514.82,206.98 " fill="none" id="Robot-to-ProxyPilot" style="stroke:#A80036;stroke-width:1.0;"/><polygon fill="#A80036" points="519,210.32,514.4827,201.5682,515.0998,207.1913,509.4768,207.8085,519,210.32" style="stroke:#A80036;stroke-width:1.0;"/><!--MD5=[9aaeffee3a8326e7d4ad402126dd714e]
link Robot to Motors--><path codeLine="34" d="M401,143.27 C401,162.92 401,189.37 401,209.25 " fill="none" id="Robot-to-Motors" style="stroke:#A80036;stroke-width:1.0;"/><polygon fill="#A80036" points="401,214.41,405,205.41,401,209.41,397,205.41,401,214.41" style="stroke:#A80036;stroke-width:1.0;"/><!--MD5=[cbc6a3fcc4c6c482c0a5c9966a33d5e7]
link Sensors to Accelerometer--><path codeLine="35" d="M211.41,135.76 C199.54,142.44 186.81,150.41 176,159 C158.4,172.98 141.16,191.24 127.86,206.63 " fill="none" id="Sensors-to-Accelerometer" style="stroke:#A80036;stroke-width:1.0;"/><polygon fill="#A80036" points="124.56,210.47,133.4449,206.2206,127.8057,206.6667,127.3596,201.0274,124.56,210.47" style="stroke:#A80036;stroke-width:1.0;"/><!--MD5=[a75b230ebee5dd048c8da93a0909c480]
link Sensors to ContactSensor--><path codeLine="36" d="M251,139.14 C251,157.8 251,184.27 251,205.05 " fill="none" id="Sensors-to-ContactSensor" style="stroke:#A80036;stroke-width:1.0;"/><polygon fill="#A80036" points="251,210.2,255,201.2,251,205.2,247,201.2,251,210.2" style="stroke:#A80036;stroke-width:1.0;"/><!--MD5=[77eb267a656a1979ce2ea8abb90ee3a3]
reverse link Sensors to Robot--><path codeLine="38" d="M295.71,115 C318.44,115 341.17,115 363.9,115 " fill="none" id="Sensors-backto-Robot" style="stroke:#A80036;stroke-width:1.0;"/><polygon fill="#A80036" points="290.55,115,299.55,119,295.55,115,299.55,111,290.55,115" style="stroke:#A80036;stroke-width:1.0;"/><!--MD5=[a18b6a6c51fefd4857e6c0b055cd85f6]
link DispatcherPocketRace to Robot--><path codeLine="40" d="M676.97,202.73 C659.78,187.09 637.77,169.77 615,159 C559.26,132.63 487.91,122.41 443.32,118.46 " fill="none" id="DispatcherPocketRace-to-Robot" style="stroke:#A80036;stroke-width:1.0;"/><polygon fill="#A80036" points="438.29,118.03,446.9132,122.7882,443.2715,118.4594,447.6003,114.8178,438.29,118.03" style="stroke:#A80036;stroke-width:1.0;"/><!--MD5=[17f584c13ad12a6bc39f2d3de537ca97]
@startuml


skinparam monochrome false
skinparam shadowing false

frame Race as "Race" #LightYellow {

    folder comPocket as "comPocket" #WhiteSmoke;line:IndianRed; {
        class PostmanPocketRace <<medium>>
        class DispatcherPocketRace <<active>> <<medium>> 
        class ProtocolPocketRace <<medium>>
        class ProxyPilot <<medium>>
    }

    folder motorRace as "motorRace" #WhiteSmoke;line:IndianRed; {
        class Robot <<active>>
        class Motors
    }

    folder sensorManager as "sensorManager" #WhiteSmoke;line:IndianRed;{
        class Accelerometer <<boundary>>
        class ContactSensor <<boundary>>
        class Sensors
    }

}

DispatcherPocketRace - -> PostmanPocketRace
ProxyPilot - -> PostmanPocketRace
ProxyPilot - -> ProtocolPocketRace
DispatcherPocketRace - -> ProtocolPocketRace

Robot - -> ProxyPilot
Robot - -> Motors
Sensors - -> Accelerometer
Sensors - -> ContactSensor

Robot -l-> Sensors

DispatcherPocketRace -> Robot




@enduml

PlantUML version 1.2021.14(Fri Nov 12 17:46:50 CET 2021)
(GPL source distribution)
Java Runtime: OpenJDK Runtime Environment
JVM: OpenJDK 64-Bit Server VM
Default Encoding: Cp1252
Language: en
Country: US
--></g></svg>