<?xml version="1.0" encoding="UTF-8" standalone="no"?><svg xmlns="http://www.w3.org/2000/svg" xmlns:xlink="http://www.w3.org/1999/xlink" contentScriptType="application/ecmascript" contentStyleType="text/css" height="429px" preserveAspectRatio="none" style="width:450px;height:429px;background:#FFFFFF;" version="1.1" viewBox="0 0 450 429" width="450px" zoomAndPan="magnify"><defs/><g><!--MD5=[d7f06cc0994be04fdc63ab5d20b301e2]
cluster Remote--><rect fill="#FFFFE0" height="416" style="stroke:#000000;stroke-width:1.5;" width="437" x="7" y="7"/><path d="M71,7 L71,17.6094 L61,27.6094 L7,27.6094 " fill="none" style="stroke:#000000;stroke-width:1.5;"/><text fill="#000000" font-family="sans-serif" font-size="14" font-weight="bold" lengthAdjust="spacing" textLength="54" x="10" y="22.5332">Remote</text><!--MD5=[4ca9c1c80f6285315af686bfc82647a2]
cluster comPocket--><polygon fill="#F5F5F5" points="31,175,114,175,121,198.6094,420,198.6094,420,399,31,399,31,175" style="stroke:#CD5C5C;stroke-width:1.5;"/><line style="stroke:#CD5C5C;stroke-width:1.5;" x1="31" x2="121" y1="198.6094" y2="198.6094"/><text fill="#000000" font-family="sans-serif" font-size="14" font-weight="bold" lengthAdjust="spacing" textLength="77" x="35" y="191.5332">comPocket</text><!--MD5=[75f97ada5235c9126c8be811e632feac]
cluster appli--><polygon fill="#F5F5F5" points="177,51,217,51,224,74.6094,269,74.6094,269,151,177,151,177,51" style="stroke:#CD5C5C;stroke-width:1.5;"/><line style="stroke:#CD5C5C;stroke-width:1.5;" x1="177" x2="224" y1="74.6094" y2="74.6094"/><text fill="#000000" font-family="sans-serif" font-size="14" font-weight="bold" lengthAdjust="spacing" textLength="34" x="181" y="67.5332">appli</text><!--MD5=[20ad2808ae427d0f4984e1aa5e034ab3]
class PostmanPocketRemote--><rect codeLine="9" fill="#FEFECE" height="56.1875" id="PostmanPocketRemote" style="stroke:#A80036;stroke-width:1.5;" width="163" x="47.5" y="327"/><ellipse cx="62.5" cy="347.0938" fill="#ADD1B2" rx="11" ry="11" style="stroke:#A80036;stroke-width:1.0;"/><path d="M65.2656,342.9688 Q65.4219,342.75 65.6094,342.6406 Q65.7969,342.5313 66.0156,342.5313 Q66.3906,342.5313 66.625,342.7969 Q66.8594,343.0469 66.8594,343.6563 L66.8594,345.1094 Q66.8594,345.7188 66.625,345.9844 Q66.3906,346.25 66.0156,346.25 Q65.6719,346.25 65.4688,346.0469 Q65.2656,345.8594 65.1563,345.3438 Q65.1094,344.9844 64.9219,344.7969 Q64.5938,344.4219 63.9844,344.2031 Q63.375,343.9844 62.75,343.9844 Q61.9844,343.9844 61.3438,344.3125 Q60.7188,344.6406 60.2188,345.3906 Q59.7344,346.1406 59.7344,347.1719 L59.7344,348.2656 Q59.7344,349.5 60.625,350.3281 Q61.5156,351.1406 63.1094,351.1406 Q64.0469,351.1406 64.7031,350.8906 Q65.0938,350.7344 65.5156,350.2969 Q65.7813,350.0313 65.9219,349.9531 Q66.0781,349.875 66.2813,349.875 Q66.6094,349.875 66.8594,350.1406 Q67.125,350.3906 67.125,350.7344 Q67.125,351.0781 66.7813,351.4844 Q66.2813,352.0625 65.4844,352.3906 Q64.4063,352.8438 63.1094,352.8438 Q61.5938,352.8438 60.3906,352.2188 Q59.4063,351.7188 58.7188,350.6563 Q58.0313,349.5781 58.0313,348.2969 L58.0313,347.1406 Q58.0313,345.8125 58.6406,344.6719 Q59.2656,343.5156 60.3594,342.9063 Q61.4531,342.2813 62.6875,342.2813 Q63.4219,342.2813 64.0625,342.4531 Q64.7188,342.6094 65.2656,342.9688 Z " fill="#000000"/><text fill="#000000" font-family="sans-serif" font-size="12" font-style="italic" lengthAdjust="spacing" textLength="60" x="112" y="344.457">«medium»</text><text fill="#000000" font-family="sans-serif" font-size="12" lengthAdjust="spacing" textLength="131" x="76.5" y="359.5508">PostmanPocketRemote</text><line style="stroke:#A80036;stroke-width:1.5;" x1="48.5" x2="209.5" y1="367.1875" y2="367.1875"/><line style="stroke:#A80036;stroke-width:1.5;" x1="48.5" x2="209.5" y1="375.1875" y2="375.1875"/><!--MD5=[ba52da294bcb813e2d8602ea9ddcc5a0]
class DispatcherPocketRemote--><rect codeLine="10" fill="#FEFECE" height="56.1875" id="DispatcherPocketRemote" style="stroke:#A80036;stroke-width:1.5;" width="173" x="219.5" y="211"/><ellipse cx="234.5" cy="231.0938" fill="#ADD1B2" rx="11" ry="11" style="stroke:#A80036;stroke-width:1.0;"/><path d="M237.2656,226.9688 Q237.4219,226.75 237.6094,226.6406 Q237.7969,226.5313 238.0156,226.5313 Q238.3906,226.5313 238.625,226.7969 Q238.8594,227.0469 238.8594,227.6563 L238.8594,229.1094 Q238.8594,229.7188 238.625,229.9844 Q238.3906,230.25 238.0156,230.25 Q237.6719,230.25 237.4688,230.0469 Q237.2656,229.8594 237.1563,229.3438 Q237.1094,228.9844 236.9219,228.7969 Q236.5938,228.4219 235.9844,228.2031 Q235.375,227.9844 234.75,227.9844 Q233.9844,227.9844 233.3438,228.3125 Q232.7188,228.6406 232.2188,229.3906 Q231.7344,230.1406 231.7344,231.1719 L231.7344,232.2656 Q231.7344,233.5 232.625,234.3281 Q233.5156,235.1406 235.1094,235.1406 Q236.0469,235.1406 236.7031,234.8906 Q237.0938,234.7344 237.5156,234.2969 Q237.7813,234.0313 237.9219,233.9531 Q238.0781,233.875 238.2813,233.875 Q238.6094,233.875 238.8594,234.1406 Q239.125,234.3906 239.125,234.7344 Q239.125,235.0781 238.7813,235.4844 Q238.2813,236.0625 237.4844,236.3906 Q236.4063,236.8438 235.1094,236.8438 Q233.5938,236.8438 232.3906,236.2188 Q231.4063,235.7188 230.7188,234.6563 Q230.0313,233.5781 230.0313,232.2969 L230.0313,231.1406 Q230.0313,229.8125 230.6406,228.6719 Q231.2656,227.5156 232.3594,226.9063 Q233.4531,226.2813 234.6875,226.2813 Q235.4219,226.2813 236.0625,226.4531 Q236.7188,226.6094 237.2656,226.9688 Z " fill="#000000"/><text fill="#000000" font-family="sans-serif" font-size="12" font-style="italic" lengthAdjust="spacing" textLength="60" x="289" y="228.457">«medium»</text><text fill="#000000" font-family="sans-serif" font-size="12" lengthAdjust="spacing" textLength="141" x="248.5" y="243.5508">DispatcherPocketRemote</text><line style="stroke:#A80036;stroke-width:1.5;" x1="220.5" x2="391.5" y1="251.1875" y2="251.1875"/><line style="stroke:#A80036;stroke-width:1.5;" x1="220.5" x2="391.5" y1="259.1875" y2="259.1875"/><!--MD5=[8e513d21ad50d56fd568ba0f7227d828]
class ProtocolPocketRemote--><rect codeLine="11" fill="#FEFECE" height="56.1875" id="ProtocolPocketRemote" style="stroke:#A80036;stroke-width:1.5;" width="158" x="246" y="327"/><ellipse cx="261" cy="347.0938" fill="#ADD1B2" rx="11" ry="11" style="stroke:#A80036;stroke-width:1.0;"/><path d="M263.7656,342.9688 Q263.9219,342.75 264.1094,342.6406 Q264.2969,342.5313 264.5156,342.5313 Q264.8906,342.5313 265.125,342.7969 Q265.3594,343.0469 265.3594,343.6563 L265.3594,345.1094 Q265.3594,345.7188 265.125,345.9844 Q264.8906,346.25 264.5156,346.25 Q264.1719,346.25 263.9688,346.0469 Q263.7656,345.8594 263.6563,345.3438 Q263.6094,344.9844 263.4219,344.7969 Q263.0938,344.4219 262.4844,344.2031 Q261.875,343.9844 261.25,343.9844 Q260.4844,343.9844 259.8438,344.3125 Q259.2188,344.6406 258.7188,345.3906 Q258.2344,346.1406 258.2344,347.1719 L258.2344,348.2656 Q258.2344,349.5 259.125,350.3281 Q260.0156,351.1406 261.6094,351.1406 Q262.5469,351.1406 263.2031,350.8906 Q263.5938,350.7344 264.0156,350.2969 Q264.2813,350.0313 264.4219,349.9531 Q264.5781,349.875 264.7813,349.875 Q265.1094,349.875 265.3594,350.1406 Q265.625,350.3906 265.625,350.7344 Q265.625,351.0781 265.2813,351.4844 Q264.7813,352.0625 263.9844,352.3906 Q262.9063,352.8438 261.6094,352.8438 Q260.0938,352.8438 258.8906,352.2188 Q257.9063,351.7188 257.2188,350.6563 Q256.5313,349.5781 256.5313,348.2969 L256.5313,347.1406 Q256.5313,345.8125 257.1406,344.6719 Q257.7656,343.5156 258.8594,342.9063 Q259.9531,342.2813 261.1875,342.2813 Q261.9219,342.2813 262.5625,342.4531 Q263.2188,342.6094 263.7656,342.9688 Z " fill="#000000"/><text fill="#000000" font-family="sans-serif" font-size="12" font-style="italic" lengthAdjust="spacing" textLength="60" x="308" y="344.457">«medium»</text><text fill="#000000" font-family="sans-serif" font-size="12" lengthAdjust="spacing" textLength="126" x="275" y="359.5508">ProtocolPocketRemote</text><line style="stroke:#A80036;stroke-width:1.5;" x1="247" x2="403" y1="367.1875" y2="367.1875"/><line style="stroke:#A80036;stroke-width:1.5;" x1="247" x2="403" y1="375.1875" y2="375.1875"/><!--MD5=[9de5ec17b61bd198bf589a441aae3f4a]
class ProxyPilot--><rect codeLine="12" fill="#FEFECE" height="56.1875" id="ProxyPilot" style="stroke:#A80036;stroke-width:1.5;" width="88" x="96" y="211"/><ellipse cx="111" cy="231.0938" fill="#ADD1B2" rx="11" ry="11" style="stroke:#A80036;stroke-width:1.0;"/><path d="M113.7656,226.9688 Q113.9219,226.75 114.1094,226.6406 Q114.2969,226.5313 114.5156,226.5313 Q114.8906,226.5313 115.125,226.7969 Q115.3594,227.0469 115.3594,227.6563 L115.3594,229.1094 Q115.3594,229.7188 115.125,229.9844 Q114.8906,230.25 114.5156,230.25 Q114.1719,230.25 113.9688,230.0469 Q113.7656,229.8594 113.6563,229.3438 Q113.6094,228.9844 113.4219,228.7969 Q113.0938,228.4219 112.4844,228.2031 Q111.875,227.9844 111.25,227.9844 Q110.4844,227.9844 109.8438,228.3125 Q109.2188,228.6406 108.7188,229.3906 Q108.2344,230.1406 108.2344,231.1719 L108.2344,232.2656 Q108.2344,233.5 109.125,234.3281 Q110.0156,235.1406 111.6094,235.1406 Q112.5469,235.1406 113.2031,234.8906 Q113.5938,234.7344 114.0156,234.2969 Q114.2813,234.0313 114.4219,233.9531 Q114.5781,233.875 114.7813,233.875 Q115.1094,233.875 115.3594,234.1406 Q115.625,234.3906 115.625,234.7344 Q115.625,235.0781 115.2813,235.4844 Q114.7813,236.0625 113.9844,236.3906 Q112.9063,236.8438 111.6094,236.8438 Q110.0938,236.8438 108.8906,236.2188 Q107.9063,235.7188 107.2188,234.6563 Q106.5313,233.5781 106.5313,232.2969 L106.5313,231.1406 Q106.5313,229.8125 107.1406,228.6719 Q107.7656,227.5156 108.8594,226.9063 Q109.9531,226.2813 111.1875,226.2813 Q111.9219,226.2813 112.5625,226.4531 Q113.2188,226.6094 113.7656,226.9688 Z " fill="#000000"/><text fill="#000000" font-family="sans-serif" font-size="12" font-style="italic" lengthAdjust="spacing" textLength="60" x="123" y="228.457">«medium»</text><text fill="#000000" font-family="sans-serif" font-size="12" lengthAdjust="spacing" textLength="53" x="126.5" y="243.5508">ProxyPilot</text><line style="stroke:#A80036;stroke-width:1.5;" x1="97" x2="183" y1="251.1875" y2="251.1875"/><line style="stroke:#A80036;stroke-width:1.5;" x1="97" x2="183" y1="259.1875" y2="259.1875"/><!--MD5=[dea218438a3cec9ad0f2c6038357189c]
class Appli--><rect codeLine="17" fill="#FEFECE" height="48" id="Appli" style="stroke:#A80036;stroke-width:1.5;" width="59" x="193.5" y="87"/><ellipse cx="208.5" cy="103" fill="#ADD1B2" rx="11" ry="11" style="stroke:#A80036;stroke-width:1.0;"/><path d="M211.2656,98.875 Q211.4219,98.6563 211.6094,98.5469 Q211.7969,98.4375 212.0156,98.4375 Q212.3906,98.4375 212.625,98.7031 Q212.8594,98.9531 212.8594,99.5625 L212.8594,101.0156 Q212.8594,101.625 212.625,101.8906 Q212.3906,102.1563 212.0156,102.1563 Q211.6719,102.1563 211.4688,101.9531 Q211.2656,101.7656 211.1563,101.25 Q211.1094,100.8906 210.9219,100.7031 Q210.5938,100.3281 209.9844,100.1094 Q209.375,99.8906 208.75,99.8906 Q207.9844,99.8906 207.3438,100.2188 Q206.7188,100.5469 206.2188,101.2969 Q205.7344,102.0469 205.7344,103.0781 L205.7344,104.1719 Q205.7344,105.4063 206.625,106.2344 Q207.5156,107.0469 209.1094,107.0469 Q210.0469,107.0469 210.7031,106.7969 Q211.0938,106.6406 211.5156,106.2031 Q211.7813,105.9375 211.9219,105.8594 Q212.0781,105.7813 212.2813,105.7813 Q212.6094,105.7813 212.8594,106.0469 Q213.125,106.2969 213.125,106.6406 Q213.125,106.9844 212.7813,107.3906 Q212.2813,107.9688 211.4844,108.2969 Q210.4063,108.75 209.1094,108.75 Q207.5938,108.75 206.3906,108.125 Q205.4063,107.625 204.7188,106.5625 Q204.0313,105.4844 204.0313,104.2031 L204.0313,103.0469 Q204.0313,101.7188 204.6406,100.5781 Q205.2656,99.4219 206.3594,98.8125 Q207.4531,98.1875 208.6875,98.1875 Q209.4219,98.1875 210.0625,98.3594 Q210.7188,98.5156 211.2656,98.875 Z " fill="#000000"/><text fill="#000000" font-family="sans-serif" font-size="12" lengthAdjust="spacing" textLength="27" x="222.5" y="107.9102">Appli</text><line style="stroke:#A80036;stroke-width:1.5;" x1="194.5" x2="251.5" y1="119" y2="119"/><line style="stroke:#A80036;stroke-width:1.5;" x1="194.5" x2="251.5" y1="127" y2="127"/><!--MD5=[3a2acd4b2bcbb1886a00af3442fc7bb9]
link DispatcherPocketRemote to PostmanPocketRemote--><path codeLine="24" d="M264.05,267.02 C237.37,284.2 202.79,306.48 175.3,324.18 " fill="none" id="DispatcherPocketRemote-to-PostmanPocketRemote" style="stroke:#A80036;stroke-width:1.0;"/><polygon fill="#A80036" points="170.95,326.98,180.6836,325.4779,175.1559,324.2762,176.3576,318.7485,170.95,326.98" style="stroke:#A80036;stroke-width:1.0;"/><!--MD5=[75c3d01e33d3c8c4a26d06de001582d0]
link ProxyPilot to PostmanPocketRemote--><path codeLine="25" d="M137.39,267.02 C135.82,283.37 133.79,304.32 132.13,321.56 " fill="none" id="ProxyPilot-to-PostmanPocketRemote" style="stroke:#A80036;stroke-width:1.0;"/><polygon fill="#A80036" points="131.63,326.78,136.4595,318.1965,132.1007,321.8022,128.495,317.4434,131.63,326.78" style="stroke:#A80036;stroke-width:1.0;"/><!--MD5=[8437decea21290e0e8891b2081828525]
link ProxyPilot to ProtocolPocketRemote--><path codeLine="26" d="M183.84,267.02 C211.73,284.2 247.88,306.48 276.61,324.18 " fill="none" id="ProxyPilot-to-ProtocolPocketRemote" style="stroke:#A80036;stroke-width:1.0;"/><polygon fill="#A80036" points="281.15,326.98,275.5739,318.8617,276.8893,324.3635,271.3875,325.6789,281.15,326.98" style="stroke:#A80036;stroke-width:1.0;"/><!--MD5=[df69b3c1527bab58c0047a82617e938b]
link DispatcherPocketRemote to ProtocolPocketRemote--><path codeLine="27" d="M310.5,267.02 C313.23,283.37 316.72,304.32 319.59,321.56 " fill="none" id="DispatcherPocketRemote-to-ProtocolPocketRemote" style="stroke:#A80036;stroke-width:1.0;"/><polygon fill="#A80036" points="320.46,326.78,322.9125,317.2414,319.6311,321.8492,315.0233,318.5677,320.46,326.78" style="stroke:#A80036;stroke-width:1.0;"/><!--MD5=[01643d8cb47fb110236da3802790b3cc]
link Appli to ProxyPilot--><path codeLine="29" d="M207.78,135.11 C194.61,155.09 175.46,184.17 160.87,206.32 " fill="none" id="Appli-to-ProxyPilot" style="stroke:#A80036;stroke-width:1.0;"/><polygon fill="#A80036" points="158.02,210.65,166.3196,205.3474,160.777,206.4788,159.6456,200.9362,158.02,210.65" style="stroke:#A80036;stroke-width:1.0;"/><!--MD5=[c2ce885fbc0725b8a6bd3b5bdd52901d]
link DispatcherPocketRemote to Appli--><path codeLine="30" d="M287.98,210.65 C274.11,189.58 255.01,160.59 241.11,139.49 " fill="none" id="DispatcherPocketRemote-to-Appli" style="stroke:#A80036;stroke-width:1.0;"/><polygon fill="#A80036" points="238.22,135.11,239.8304,144.8263,240.9704,139.2855,246.5112,140.4256,238.22,135.11" style="stroke:#A80036;stroke-width:1.0;"/><!--MD5=[cb1218b99f3cdb19fc9f4ac832fad586]
@startuml


skinparam monochrome false
skinparam shadowing false

frame Remote as "Remote" #LightYellow {

    folder comPocket as "comPocket" #WhiteSmoke;line:IndianRed; {
        class PostmanPocketRemote <<medium>>
        class DispatcherPocketRemote <<medium>>
        class ProtocolPocketRemote <<medium>>
        class ProxyPilot <<medium>>
    }

    folder appli as "appli" #WhiteSmoke;line:IndianRed; {

        class Appli

    }


}

DispatcherPocketRemote - -> PostmanPocketRemote
ProxyPilot - -> PostmanPocketRemote
ProxyPilot - -> ProtocolPocketRemote
DispatcherPocketRemote - -> ProtocolPocketRemote

Appli - -> ProxyPilot
DispatcherPocketRemote -> Appli

@enduml

PlantUML version 1.2021.7(Sun May 23 14:40:07 CEST 2021)
(GPL source distribution)
Java Runtime: OpenJDK Runtime Environment
JVM: OpenJDK 64-Bit Server VM
Default Encoding: Cp1252
Language: en
Country: US
--></g></svg>